<?xml version="1.0" encoding="UTF-8" standalone="no"?>
<!-- Created with Inkscape (http://www.inkscape.org/) -->

<svg
   xmlns:dc="http://purl.org/dc/elements/1.1/"
   xmlns:cc="http://creativecommons.org/ns#"
   xmlns:rdf="http://www.w3.org/1999/02/22-rdf-syntax-ns#"
   xmlns:svg="http://www.w3.org/2000/svg"
   xmlns="http://www.w3.org/2000/svg"
   xmlns:sodipodi="http://sodipodi.sourceforge.net/DTD/sodipodi-0.dtd"
   xmlns:inkscape="http://www.inkscape.org/namespaces/inkscape"
   sodipodi:docname="grad_desc.svg"
   inkscape:version="0.92.2 (5c3e80d, 2017-08-06)"
   id="svg8"
   version="1.1"
   viewBox="0 0 210 297"
   height="297mm"
   width="210mm">
  <sodipodi:namedview
     inkscape:window-maximized="1"
     inkscape:window-y="21"
     inkscape:window-x="-9"
     inkscape:window-height="971"
     inkscape:window-width="1680"
     showgrid="true"
     inkscape:current-layer="layer2"
     inkscape:document-units="mm"
     inkscape:cy="870.78109"
     inkscape:cx="317.56135"
     inkscape:zoom="1.979899"
     inkscape:pageshadow="2"
     inkscape:pageopacity="0.0"
     borderopacity="1.0"
     bordercolor="#666666"
     pagecolor="#ffffff"
     id="base"
     inkscape:snap-global="true">
    <inkscape:grid
       id="grid1366"
       type="xygrid" />
  </sodipodi:namedview>
  <defs
     id="defs2">
    <marker
       inkscape:stockid="TriangleOutM"
       orient="auto"
       refY="0.0"
       refX="0.0"
       id="marker4258"
       style="overflow:visible"
       inkscape:isstock="true">
      <path
         id="path4138"
         d="M 5.77,0.0 L -2.88,5.0 L -2.88,-5.0 L 5.77,0.0 z "
         style="fill-rule:evenodd;stroke:#fd0000;stroke-width:1pt;stroke-opacity:1;fill:#fd0000;fill-opacity:1"
         transform="scale(0.4)" />
    </marker>
    <marker
       inkscape:stockid="DiamondL"
       orient="auto"
       refY="0.0"
       refX="0.0"
       id="DiamondL"
       style="overflow:visible"
       inkscape:isstock="true">
      <path
         id="path4072"
         d="M 0,-7.0710768 L -7.0710894,0 L 0,7.0710589 L 7.0710462,0 L 0,-7.0710768 z "
         style="fill-rule:evenodd;stroke:#fd0000;stroke-width:1pt;stroke-opacity:1;fill:#fd0000;fill-opacity:1"
         transform="scale(0.8)" />
    </marker>
    <inkscape:path-effect
       effect="bspline"
       id="path-effect3991"
       is_visible="true"
       weight="33.333333"
       steps="2"
       helper_size="0"
       apply_no_weight="true"
       apply_with_weight="true"
       only_selected="false" />
    <marker
       inkscape:stockid="TriangleOutM"
       orient="auto"
       refY="0"
       refX="0"
       id="marker1296"
       style="overflow:visible"
       inkscape:isstock="true">
      <path
         id="path1294"
         d="M 5.77,0 -2.88,5 V -5 Z"
         style="fill:#ff0000;fill-opacity:1;fill-rule:evenodd;stroke:#ff0000;stroke-width:1.00000003pt;stroke-opacity:1"
         transform="scale(0.4)"
         inkscape:connector-curvature="0" />
    </marker>
    <marker
       inkscape:stockid="TriangleOutM"
       orient="auto"
       refY="0"
       refX="0"
       id="marker1282"
       style="overflow:visible"
       inkscape:isstock="true">
      <path
         id="path1280"
         d="M 5.77,0 -2.88,5 V -5 Z"
         style="fill:#ff0000;fill-opacity:1;fill-rule:evenodd;stroke:#ff0000;stroke-width:1.00000003pt;stroke-opacity:1"
         transform="scale(0.4)"
         inkscape:connector-curvature="0" />
    </marker>
    <marker
       inkscape:stockid="TriangleOutM"
       orient="auto"
       refY="0"
       refX="0"
       id="marker5916"
       style="overflow:visible"
       inkscape:isstock="true">
      <path
         id="path5914"
         d="M 5.77,0 -2.88,5 V -5 Z"
         style="fill:#ff0000;fill-opacity:1;fill-rule:evenodd;stroke:#ff0000;stroke-width:1.00000003pt;stroke-opacity:1"
         transform="scale(0.4)"
         inkscape:connector-curvature="0" />
    </marker>
    <marker
       inkscape:stockid="TriangleOutM"
       orient="auto"
       refY="0.0"
       refX="0.0"
       id="marker5506"
       style="overflow:visible"
       inkscape:isstock="true">
      <path
         id="path5504"
         d="M 5.77,0.0 L -2.88,5.0 L -2.88,-5.0 L 5.77,0.0 z "
         style="fill-rule:evenodd;stroke:#ff0000;stroke-width:1pt;stroke-opacity:1;fill:#ff0000;fill-opacity:1"
         transform="scale(0.4)" />
    </marker>
    <inkscape:path-effect
       effect="bspline"
       id="path-effect5502"
       is_visible="true"
       weight="33.333333"
       steps="2"
       helper_size="0"
       apply_no_weight="true"
       apply_with_weight="true"
       only_selected="false" />
    <inkscape:path-effect
       effect="bspline"
       id="path-effect5498"
       is_visible="true"
       weight="33.333333"
       steps="2"
       helper_size="0"
       apply_no_weight="true"
       apply_with_weight="true"
       only_selected="false" />
    <inkscape:path-effect
       effect="bspline"
       id="path-effect5494"
       is_visible="true"
       weight="33.333333"
       steps="2"
       helper_size="0"
       apply_no_weight="true"
       apply_with_weight="true"
       only_selected="false" />
    <inkscape:path-effect
       effect="bspline"
       id="path-effect5490"
       is_visible="true"
       weight="33.333333"
       steps="2"
       helper_size="0"
       apply_no_weight="true"
       apply_with_weight="true"
       only_selected="false" />
    <marker
       inkscape:isstock="true"
       style="overflow:visible"
       id="marker3419"
       refX="0.0"
       refY="0.0"
       orient="auto"
       inkscape:stockid="TriangleOutM"
       inkscape:collect="always">
      <path
         transform="scale(0.4)"
         style="fill-rule:evenodd;stroke:#ff0000;stroke-width:1pt;stroke-opacity:1;fill:#ff0000;fill-opacity:1"
         d="M 5.77,0.0 L -2.88,5.0 L -2.88,-5.0 L 5.77,0.0 z "
         id="path3417" />
    </marker>
    <inkscape:path-effect
       only_selected="false"
       apply_with_weight="true"
       apply_no_weight="true"
       helper_size="0"
       steps="2"
       weight="33.333333"
       is_visible="true"
       id="path-effect3409"
       effect="bspline" />
    <marker
       inkscape:collect="always"
       inkscape:stockid="TriangleOutM"
       orient="auto"
       refY="0.0"
       refX="0.0"
       id="marker1702"
       style="overflow:visible"
       inkscape:isstock="true">
      <path
         id="path1700"
         d="M 5.77,0.0 L -2.88,5.0 L -2.88,-5.0 L 5.77,0.0 z "
         style="fill-rule:evenodd;stroke:#000000;stroke-width:1pt;stroke-opacity:1;fill:#000000;fill-opacity:1"
         transform="scale(0.4)" />
    </marker>
    <inkscape:path-effect
       effect="bspline"
       id="path-effect1698"
       is_visible="true"
       weight="33.333333"
       steps="2"
       helper_size="0"
       apply_no_weight="true"
       apply_with_weight="true"
       only_selected="false" />
    <marker
       inkscape:collect="always"
       inkscape:isstock="true"
       style="overflow:visible"
       id="TriangleOutM"
       refX="0.0"
       refY="0.0"
       orient="auto"
       inkscape:stockid="TriangleOutM">
      <path
         transform="scale(0.4)"
         style="fill-rule:evenodd;stroke:#000000;stroke-width:1pt;stroke-opacity:1;fill:#000000;fill-opacity:1"
         d="M 5.77,0.0 L -2.88,5.0 L -2.88,-5.0 L 5.77,0.0 z "
         id="path1517" />
    </marker>
    <inkscape:path-effect
       only_selected="false"
       apply_with_weight="true"
       apply_no_weight="true"
       helper_size="0"
       steps="2"
       weight="33.333333"
       is_visible="true"
       id="path-effect1370"
       effect="bspline" />
    <marker
       inkscape:isstock="true"
       style="overflow:visible"
       id="marker3419-0"
       refX="0"
       refY="0"
       orient="auto"
       inkscape:stockid="TriangleOutM"
       inkscape:collect="always">
      <path
         inkscape:connector-curvature="0"
         transform="scale(0.4)"
         style="fill:#ff0000;fill-opacity:1;fill-rule:evenodd;stroke:#ff0000;stroke-width:1.00000003pt;stroke-opacity:1"
         d="M 5.77,0 -2.88,5 V -5 Z"
         id="path3417-2" />
    </marker>
    <inkscape:path-effect
       only_selected="false"
       apply_with_weight="true"
       apply_no_weight="true"
       helper_size="0"
       steps="2"
       weight="33.333333"
       is_visible="true"
       id="path-effect3409-7"
       effect="bspline" />
    <marker
       inkscape:isstock="true"
       style="overflow:visible"
       id="marker3419-0-6"
       refX="0"
       refY="0"
       orient="auto"
       inkscape:stockid="TriangleOutM"
       inkscape:collect="always">
      <path
         inkscape:connector-curvature="0"
         transform="scale(0.4)"
         style="fill:#ff0000;fill-opacity:1;fill-rule:evenodd;stroke:#ff0000;stroke-width:1.00000003pt;stroke-opacity:1"
         d="M 5.77,0 -2.88,5 V -5 Z"
         id="path3417-2-9" />
    </marker>
    <inkscape:path-effect
       only_selected="false"
       apply_with_weight="true"
       apply_no_weight="true"
       helper_size="0"
       steps="2"
       weight="33.333333"
       is_visible="true"
       id="path-effect3409-7-6"
       effect="bspline" />
    <marker
       inkscape:isstock="true"
       style="overflow:visible"
       id="marker3419-0-9"
       refX="0"
       refY="0"
       orient="auto"
       inkscape:stockid="TriangleOutM"
       inkscape:collect="always">
      <path
         inkscape:connector-curvature="0"
         transform="scale(0.4)"
         style="fill:#ff0000;fill-opacity:1;fill-rule:evenodd;stroke:#ff0000;stroke-width:1.00000003pt;stroke-opacity:1"
         d="M 5.77,0 -2.88,5 V -5 Z"
         id="path3417-2-6" />
    </marker>
    <inkscape:path-effect
       only_selected="false"
       apply_with_weight="true"
       apply_no_weight="true"
       helper_size="0"
       steps="2"
       weight="33.333333"
       is_visible="true"
       id="path-effect3409-7-5"
       effect="bspline" />
    <inkscape:path-effect
       only_selected="false"
       apply_with_weight="true"
       apply_no_weight="true"
       helper_size="0"
       steps="2"
       weight="33.333333"
       is_visible="true"
       id="path-effect3409-79"
       effect="bspline" />
  </defs>
  <metadata
     id="metadata5">
    <rdf:RDF>
      <cc:Work
         rdf:about="">
        <dc:format>image/svg+xml</dc:format>
        <dc:type
           rdf:resource="http://purl.org/dc/dcmitype/StillImage" />
        <dc:title></dc:title>
      </cc:Work>
    </rdf:RDF>
  </metadata>
  <path
     id="path3842"
     title="t pow(t,2)"
     d="m 83.571869,37.966005 c 0.06595,0.175394 0.131915,0.350203 0.197832,0.524424 0.06595,0.174208 0.131915,0.347857 0.19783,0.520908 0.06595,0.173053 0.131915,0.34551 0.197872,0.517385 0.06595,0.171867 0.131915,0.343163 0.19783,0.513867 0.06595,0.170712 0.131915,0.340817 0.197832,0.51035 0.06595,0.169525 0.131915,0.338468 0.19787,0.506824 0.06595,0.168371 0.131915,0.336128 0.197832,0.50331 0.06595,0.167185 0.131915,0.333776 0.197833,0.499789 0.06595,0.165997 0.131916,0.331431 0.197869,0.496268 0.06595,0.164845 0.131915,0.329086 0.197831,0.49275 0.06595,0.163657 0.131915,0.326736 0.197832,0.489226 0.06595,0.162503 0.131916,0.324395 0.19787,0.485711 0.06596,0.161316 0.131915,0.322047 0.197833,0.48219 0.066,0.16013 0.13191,0.319714 0.19783,0.478674 0.0659,0.158974 0.13192,0.317339 0.19783,0.475146 0.066,0.157788 0.13192,0.315001 0.19787,0.471635 0.066,0.156633 0.13192,0.312657 0.19783,0.468112 0.066,0.155447 0.13192,0.310316 0.19784,0.46459 0.066,0.154293 0.13191,0.307977 0.19787,0.461072 0.066,0.153106 0.13191,0.305636 0.19783,0.457555 0.066,0.151918 0.13191,0.30326 0.19783,0.454033 0.066,0.150764 0.13191,0.300921 0.19787,0.45051 0.066,0.149579 0.13191,0.29858 0.19783,0.446994 0.066,0.148424 0.13192,0.296238 0.19783,0.443475 0.066,0.147237 0.13192,0.293896 0.19787,0.439954 0.066,0.146082 0.13192,0.291556 0.19783,0.436437 0.066,0.144894 0.13192,0.289181 0.19784,0.432912 0.066,0.14371 0.13191,0.286843 0.19783,0.429398 0.066,0.142553 0.13191,0.2845 0.19787,0.425877 0.066,0.141368 0.13191,0.282159 0.19783,0.422356 0.066,0.140214 0.13191,0.279818 0.19783,0.418836 0.066,0.139027 0.13192,0.277476 0.19787,0.415317 0.0659,0.13784 0.13192,0.275134 0.19783,0.411799 0.066,0.136685 0.13192,0.272761 0.19783,0.408278 0.066,0.135498 0.13192,0.270419 0.19788,0.404757 0.066,0.134346 0.13191,0.268082 0.19783,0.40124 0.0659,0.133156 0.13191,0.265737 0.19783,0.397718 0.066,0.131973 0.13191,0.263398 0.19783,0.394199 0.066,0.130818 0.13192,0.261025 0.19787,0.39068 0.066,0.129632 0.13191,0.258683 0.19783,0.387158 0.066,0.128476 0.13192,0.256343 0.19783,0.383641 0.066,0.127289 0.13192,0.254001 0.19787,0.380119 0.066,0.126135 0.13192,0.251659 0.19784,0.376602 0.066,0.124948 0.13191,0.249319 0.19783,0.373083 0.066,0.123761 0.13191,0.246945 0.19787,0.369561 0.066,0.122607 0.13191,0.244603 0.19783,0.366042 0.066,0.121422 0.13191,0.242264 0.19783,0.362523 0.066,0.120266 0.13192,0.239922 0.19787,0.359005 0.066,0.119078 0.13192,0.237579 0.19783,0.355482 0.066,0.117925 0.13192,0.235239 0.19783,0.351964 0.066,0.116738 0.13192,0.232867 0.19787,0.348443 0.066,0.11555 0.13192,0.230525 0.19783,0.344925 0.066,0.114395 0.13192,0.228184 0.19784,0.341403 0.066,0.11321 0.13191,0.225842 0.19783,0.337885 0.066,0.112056 0.13191,0.223502 0.19783,0.334367 0.066,0.110869 0.13192,0.221161 0.19783,0.330845 0.066,0.109683 0.13192,0.21882 0.19783,0.327324 0.066,0.108529 0.13192,0.216448 0.19783,0.32381 0.0659,0.107341 0.13192,0.214106 0.19787,0.320292 0.066,0.106186 0.13192,0.211763 0.19784,0.316763 0.066,0.105 0.13191,0.209423 0.19783,0.313236 0.066,0.103845 0.13191,0.207081 0.19787,0.309739 0.066,0.102659 0.13191,0.204741 0.19783,0.306213 0.066,0.101472 0.13192,0.202366 0.19783,0.302684 0.066,0.100318 0.13192,0.200025 0.19787,0.299158 0.066,0.09913 0.13192,0.197683 0.19783,0.295659 0.066,0.09797 0.13192,0.195344 0.19783,0.292134 0.066,0.09679 0.13192,0.193001 0.19788,0.288604 0.066,0.09561 0.13191,0.19063 0.19783,0.285078 0.066,0.09444 0.13191,0.188287 0.19783,0.281582 0.066,0.09327 0.13191,0.185946 0.19787,0.278054 0.066,0.0921 0.13191,0.183605 0.19783,0.274525 0.066,0.09092 0.13192,0.181265 0.19783,0.271031 0.066,0.08976 0.13192,0.178923 0.19787,0.267503 0.066,0.08858 0.13192,0.176582 0.19783,0.263974 0.066,0.08739 0.13192,0.174209 0.19784,0.260447 0.066,0.08624 0.13191,0.171867 0.19783,0.25692 0.066,0.08506 0.13191,0.169525 0.19783,0.253423 0.066,0.08389 0.13191,0.167185 0.19783,0.249896 0.066,0.08271 0.13192,0.164843 0.19783,0.246367 0.066,0.08152 0.13192,0.162473 0.19784,0.242841 0.066,0.08037 0.13191,0.16013 0.19786,0.239344 0.066,0.07918 0.13192,0.157789 0.19783,0.235818 0.066,0.07803 0.131915,0.155447 0.197835,0.232289 0.066,0.07684 0.13191,0.153104 0.19787,0.228792 0.066,0.07569 0.13191,0.150764 0.19783,0.225265 0.066,0.07449 0.13191,0.148425 0.19783,0.221739 0.066,0.07331 0.13192,0.146049 0.19787,0.21821 0.066,0.07216 0.13192,0.143708 0.19783,0.214681 0.066,0.07098 0.13192,0.141367 0.19783,0.211187 0.066,0.06982 0.13192,0.139025 0.19787,0.207658 0.066,0.06864 0.13192,0.136685 0.19783,0.20413 0.066,0.06745 0.13192,0.134344 0.19784,0.200635 0.066,0.06629 0.13191,0.131971 0.19787,0.197108 0.066,0.06511 0.13191,0.129629 0.19783,0.193578 0.0659,0.06396 0.13191,0.12729 0.19783,0.190052 0.066,0.06276 0.13192,0.124948 0.19787,0.186556 0.066,0.06161 0.13192,0.122607 0.19783,0.183028 0.066,0.06042 0.13192,0.120266 0.19783,0.1795 0.066,0.05922 0.13192,0.117894 0.19784,0.175972 0.066,0.05808 0.13191,0.115553 0.19783,0.172478 0.066,0.0569 0.13191,0.11321 0.19783,0.16895 0.066,0.05574 0.13191,0.110867 0.19783,0.16542 0.066,0.05456 0.13192,0.108528 0.19783,0.161894 0.066,0.05336 0.13192,0.106186 0.19787,0.158397 0.066,0.05221 0.13192,0.103814 0.19784,0.15487 0.066,0.05102 0.13191,0.101473 0.19783,0.151342 0.0659,0.04988 0.13191,0.09913 0.19787,0.147814 0.066,0.04868 0.13191,0.0968 0.19783,0.14432 0.066,0.04753 0.13191,0.09445 0.19783,0.14079 0.066,0.04634 0.13191,0.09211 0.19787,0.137264 0.066,0.04514 0.13192,0.08976 0.19783,0.133735 0.066,0.044 0.13192,0.08739 0.19783,0.130207 0.066,0.04282 0.13192,0.08505 0.19787,0.126711 0.066,0.04166 0.13192,0.08272 0.19783,0.123186 0.066,0.04047 0.13192,0.08037 0.19784,0.119655 0.066,0.0393 0.13191,0.07804 0.19787,0.116161 0.066,0.03813 0.13191,0.07569 0.19783,0.112632 0.066,0.03694 0.13191,0.07331 0.19783,0.109105 0.066,0.03578 0.13191,0.07098 0.19783,0.105576 0.066,0.0346 0.13192,0.06864 0.19783,0.102083 0.066,0.03345 0.13192,0.06629 0.19783,0.09856 0.066,0.03226 0.13192,0.06394 0.19784,0.09502 0.066,0.0311 0.13191,0.06157 0.19783,0.0915 0.066,0.02982 0.13191,0.05922 0.19787,0.088 0.066,0.02886 0.13191,0.05689 0.19783,0.08447 0.066,0.02757 0.13191,0.05456 0.19783,0.08094 0.066,0.0263 0.13192,0.05221 0.19787,0.07742 0.066,0.02534 0.13192,0.04988 0.19783,0.07393 0.066,0.02405 0.13192,0.04753 0.19783,0.07039 0.066,0.02277 0.13192,0.04514 0.19787,0.06688 0.066,0.02181 0.13192,0.04282 0.19784,0.06334 0.066,0.02052 0.13191,0.04047 0.19783,0.05984 0.066,0.01925 0.13191,0.03813 0.19787,0.0563 0.066,0.01829 0.13191,0.03579 0.19783,0.0528 0.066,0.01699 0.13191,0.03345 0.19783,0.04929 0.0659,0.01572 0.13192,0.03111 0.19787,0.04576 0.066,0.01475 0.13192,0.02887 0.19783,0.04224 0.066,0.01347 0.13192,0.0263 0.19783,0.03871 0.066,0.01218 0.13192,0.02405 0.19787,0.03521 0.066,0.01123 0.13192,0.02181 0.19784,0.03175 0.066,0.0099 0.13191,0.01924 0.19783,0.02822 0.066,0.0087 0.13191,0.017 0.19783,0.02469 0.066,0.0077 0.13191,0.01475 0.19787,0.02117 0.066,0.0065 0.13191,0.01218 0.19783,0.01764 0.066,0.0051 0.13192,0.0099 0.19783,0.01411 0.066,0.0042 0.13192,0.0077 0.19787,0.01058 0.066,0.003 0.13192,0.0051 0.19784,0.0071 0.066,0.0017 0.13191,0.003 0.19783,0.0036 0.066,5.9e-4 0.13191,5.86e-4 0.19783,0 0.066,-5.84e-4 0.13191,-0.0017 0.19787,-0.0036 0.066,-0.0017 0.13191,-0.0042 0.19783,-0.0071 0.066,-0.003 0.13191,-0.0065 0.19783,-0.01058 0.066,-0.0042 0.13192,-0.0087 0.19787,-0.01411 0.0659,-0.0051 0.13192,-0.01123 0.19783,-0.01764 0.066,-0.0065 0.13192,-0.01347 0.19783,-0.02117 0.066,-0.0077 0.13192,-0.01572 0.19788,-0.02469 0.066,-0.0087 0.13191,-0.01829 0.19783,-0.02822 0.0659,-0.0099 0.13191,-0.02052 0.19783,-0.03175 0.066,-0.01123 0.13191,-0.02277 0.19787,-0.03521 0.0659,-0.01218 0.13191,-0.02533 0.19783,-0.03871 0.066,-0.01347 0.13192,-0.02758 0.19783,-0.04224 0.0659,-0.01475 0.13192,-0.02982 0.19787,-0.04576 0.066,-0.01572 0.13192,-0.03226 0.19783,-0.04929 0.0659,-0.017 0.13192,-0.0346 0.19783,-0.0528 0.066,-0.01828 0.13192,-0.03694 0.19784,-0.0563 0.0659,-0.01925 0.13191,-0.0393 0.19787,-0.05984 0.0659,-0.02052 0.13191,-0.04166 0.19783,-0.06334 0.0659,-0.02181 0.13191,-0.044 0.19783,-0.06688 0.066,-0.02277 0.13192,-0.04634 0.19787,-0.07039 0.066,-0.02405 0.13192,-0.04868 0.19783,-0.07393 0.066,-0.02534 0.13192,-0.05102 0.19783,-0.07742 0.0659,-0.0263 0.13192,-0.05336 0.19787,-0.08094 0.0659,-0.02758 0.13192,-0.05574 0.19783,-0.08447 0.0659,-0.02886 0.13192,-0.05808 0.19784,-0.088 0.066,-0.02982 0.13191,-0.06042 0.19787,-0.0915 0.066,-0.03111 0.13191,-0.06276 0.19783,-0.09502 0.0659,-0.03226 0.13191,-0.06511 0.19783,-0.09856 0.0659,-0.03345 0.13192,-0.06744 0.19783,-0.102083 0.066,-0.03459 0.13192,-0.06982 0.19787,-0.105576 0.066,-0.03579 0.13192,-0.07216 0.19783,-0.109105 0.0659,-0.03694 0.13192,-0.07449 0.19784,-0.112632 0.0659,-0.03813 0.13191,-0.07684 0.19787,-0.116161 0.0659,-0.03932 0.13191,-0.07918 0.19783,-0.119655 0.066,-0.04047 0.13191,-0.08152 0.19783,-0.123186 0.0659,-0.04166 0.13191,-0.08389 0.19783,-0.126711 0.0659,-0.04282 0.13192,-0.08624 0.19787,-0.130207 0.0659,-0.044 0.13192,-0.08858 0.19783,-0.133735 0.066,-0.04515 0.13192,-0.09092 0.19783,-0.137264 0.066,-0.04634 0.13192,-0.09326 0.19787,-0.14079 0.066,-0.04753 0.13192,-0.09561 0.19784,-0.14432 0.0659,-0.04868 0.13191,-0.09797 0.19783,-0.147814 0.066,-0.04987 0.13191,-0.100317 0.19787,-0.151342 0.0659,-0.05102 0.13191,-0.102658 0.19783,-0.15487 0.066,-0.05221 0.13191,-0.105 0.19783,-0.158397 0.0659,-0.05341 0.13192,-0.107342 0.19787,-0.161894 0.066,-0.05456 0.13192,-0.109682 0.19783,-0.16542 0.0659,-0.05574 0.13192,-0.112056 0.19783,-0.16895 0.066,-0.05689 0.13192,-0.114397 0.19787,-0.172478 0.0659,-0.05808 0.13192,-0.116738 0.19784,-0.175972 0.066,-0.05922 0.13191,-0.119078 0.19783,-0.1795 0.0659,-0.06042 0.13191,-0.12142 0.19787,-0.183028 0.0659,-0.06157 0.13191,-0.123761 0.19783,-0.186556 0.066,-0.06276 0.13192,-0.126134 0.19783,-0.190052 0.066,-0.06395 0.13192,-0.128476 0.19783,-0.193578 0.0659,-0.06511 0.13192,-0.130817 0.19783,-0.197108 0.066,-0.06629 0.13192,-0.133157 0.19784,-0.200635 0.0659,-0.06745 0.13191,-0.1355 0.19783,-0.20413 0.0659,-0.06864 0.13191,-0.137841 0.19783,-0.207658 0.066,-0.06982 0.13191,-0.140215 0.19787,-0.211187 0.066,-0.07098 0.13191,-0.142556 0.19783,-0.214681 0.0659,-0.07216 0.13192,-0.144898 0.19783,-0.21821 0.0659,-0.07331 0.13192,-0.147239 0.19787,-0.221739 0.0659,-0.0745 0.13192,-0.149577 0.19783,-0.225265 0.066,-0.07569 0.13192,-0.151919 0.19784,-0.228792 0.0659,-0.07684 0.13191,-0.154261 0.19787,-0.232289 0.066,-0.07803 0.13191,-0.156635 0.19783,-0.235818 0.0659,-0.07918 0.13191,-0.158974 0.19783,-0.239344 0.066,-0.08037 0.13192,-0.161316 0.19787,-0.242841 0.0659,-0.08153 0.13192,-0.163656 0.19783,-0.246367 0.066,-0.08271 0.13192,-0.165998 0.19783,-0.249896 0.0659,-0.08389 0.13192,-0.168372 0.19787,-0.253423 0.066,-0.08506 0.13192,-0.170713 0.19783,-0.25692 0.0659,-0.08624 0.13192,-0.173053 0.19784,-0.260447 0.066,-0.08739 0.13191,-0.175394 0.19787,-0.263974 0.066,-0.08858 0.13191,-0.177737 0.19783,-0.267503 0.066,-0.08976 0.13191,-0.180078 0.19783,-0.271031 0.0659,-0.09092 0.13192,-0.182418 0.19783,-0.274525 0.066,-0.09211 0.13192,-0.184792 0.19783,-0.278054 0.0659,-0.09327 0.13192,-0.187134 0.19784,-0.281582 0.0659,-0.09445 0.13191,-0.189475 0.19783,-0.285078 0.066,-0.0956 0.13191,-0.191814 0.19783,-0.288604 0.0659,-0.0968 0.13191,-0.194158 0.19787,-0.292134 0.0659,-0.09797 0.13191,-0.19653 0.19783,-0.295659 0.0659,-0.09913 0.13191,-0.198873 0.19783,-0.299158 0.066,-0.100318 0.13192,-0.201212 0.19787,-0.302684 0.066,-0.101472 0.13192,-0.203554 0.19783,-0.306213 0.066,-0.102658 0.13192,-0.205894 0.19783,-0.309739 0.0659,-0.103845 0.13192,-0.208236 0.19784,-0.313236 0.066,-0.105 0.13191,-0.210577 0.19783,-0.316763 0.0659,-0.106186 0.13191,-0.212951 0.19787,-0.320292 0.0659,-0.107341 0.13191,-0.215291 0.19783,-0.32381 0.0659,-0.108527 0.13192,-0.217631 0.19783,-0.327324 0.066,-0.109681 0.13192,-0.219972 0.19783,-0.330845 0.0659,-0.110868 0.13192,-0.222315 0.19784,-0.334367 0.066,-0.112023 0.13191,-0.224655 0.19783,-0.337885 0.066,-0.11321 0.13191,-0.22703 0.19787,-0.341403 0.066,-0.114397 0.13191,-0.229371 0.19783,-0.344925 0.0659,-0.11555 0.13191,-0.231711 0.19783,-0.348443 0.0659,-0.116738 0.13192,-0.234052 0.19783,-0.351964 0.066,-0.117925 0.13192,-0.236395 0.19783,-0.355482 0.0659,-0.119079 0.13192,-0.238736 0.19783,-0.359005 0.066,-0.120265 0.13192,-0.241108 0.19784,-0.362523 0.0659,-0.121419 0.13191,-0.243448 0.19787,-0.366042 0.066,-0.122606 0.13191,-0.24579 0.19783,-0.369561 0.0659,-0.123762 0.13191,-0.248132 0.19783,-0.373083 0.066,-0.124947 0.13191,-0.250473 0.19783,-0.376602 0.066,-0.126102 0.13192,-0.252814 0.19783,-0.380119 0.0659,-0.127289 0.13192,-0.255188 0.19783,-0.383641 0.066,-0.128475 0.13192,-0.257526 0.19787,-0.387158 0.0659,-0.129629 0.13192,-0.25987 0.19784,-0.39068 0.066,-0.130817 0.13191,-0.26221 0.19782,-0.394199 0.0659,-0.132003 0.13192,-0.264551 0.19784,-0.397718 0.0659,-0.133158 0.13192,-0.266894 0.19783,-0.40124 0.0659,-0.134344 0.13192,-0.269266 0.19783,-0.404757 0.0659,-0.135501 0.13192,-0.27161 0.19787,-0.408278 0.0659,-0.136686 0.13192,-0.273949 0.19783,-0.411799 0.0659,-0.137841 0.13192,-0.27629 0.19784,-0.415317 0.0659,-0.139028 0.13191,-0.278632 0.19783,-0.418836 0.0659,-0.140181 0.13192,-0.280971 0.19783,-0.422356 0.0659,-0.141368 0.13191,-0.283345 0.19784,-0.425877 0.0659,-0.142555 0.1319,-0.285688 0.19782,-0.429398 0.0659,-0.143708 0.13192,-0.288027 0.19783,-0.432912 0.0659,-0.144898 0.13192,-0.29037 0.19788,-0.436437 0.0659,-0.14605 0.13191,-0.29271 0.19783,-0.439954 0.0659,-0.147237 0.13191,-0.295051 0.19782,-0.443475 0.0659,-0.148424 0.13192,-0.297393 0.19784,-0.446994 0.066,-0.149576 0.13191,-0.299765 0.19783,-0.45051 0.0659,-0.150766 0.13192,-0.302108 0.19783,-0.454033 0.0659,-0.151919 0.13192,-0.304449 0.19787,-0.457555 0.0659,-0.153105 0.13192,-0.306789 0.19783,-0.461072 0.0659,-0.154261 0.13192,-0.309131 0.19783,-0.46459 0.0659,-0.155448 0.13192,-0.311503 0.19784,-0.468112 0.0659,-0.156634 0.13191,-0.313847 0.19783,-0.471635 0.0659,-0.157787 0.13192,-0.316185 0.19783,-0.475146 0.0659,-0.158975 0.13191,-0.318529 0.19787,-0.478674 0.0659,-0.16013 0.13192,-0.320874 0.19783,-0.48219 0.0659,-0.161316 0.13192,-0.323219 0.19784,-0.485711 0.0659,-0.16247 0.13191,-0.325565 0.19783,-0.489226 0.0659,-0.163657 0.13192,-0.327913 0.19783,-0.49275 0.0659,-0.164843 0.13191,-0.330261 0.19782,-0.496268 0.0659,-0.165999 0.13192,-0.332608 0.19784,-0.499789 0.0659,-0.167186 0.13192,-0.334954 0.19783,-0.50331 0.0659,-0.16834 0.13192,-0.337299 0.19783,-0.506824 0.0659,-0.169527 0.13192,-0.339648 0.19784,-0.51035 0.0659,-0.170713 0.13191,-0.34199 0.19783,-0.513867 0.0659,-0.171867 0.13192,-0.344337 0.19783,-0.517385 0.0659,-0.173054 0.13191,-0.346687 0.19783,-0.520908 0.0659,-0.174208 0.13191,-0.34903 0.19783,-0.524424"
     style="opacity:0.99800002;fill:#ffffff;fill-opacity:1;stroke:#005dff;stroke-width:0.24357784;stroke-linecap:square;stroke-linejoin:miter;stroke-miterlimit:4;stroke-dasharray:none;stroke-dashoffset:0;stroke-opacity:1;paint-order:fill markers stroke"
     inkscape:connector-curvature="0" />
  <g
     id="layer1"
     inkscape:groupmode="layer"
     inkscape:label="Layer 1">
    <path
       inkscape:path-effect="#path-effect1370"
       inkscape:original-d="m 77.383235,81.403062 c 2.64e-4,-15.697649 2.64e-4,-31.395422 0,-47.093317"
       inkscape:connector-curvature="0"
       id="path1368"
       d="m 77.383235,81.403062 c 0,-15.697649 0,-31.395422 0,-47.093317"
       style="fill:none;stroke:#000000;stroke-width:0.24357784;stroke-linecap:butt;stroke-linejoin:miter;stroke-miterlimit:4;stroke-dasharray:none;stroke-opacity:1;marker-end:url(#TriangleOutM)" />
    <path
       sodipodi:nodetypes="ccc"
       style="fill:none;stroke:#ff0000;stroke-width:0.40596306;stroke-linecap:butt;stroke-linejoin:miter;stroke-miterlimit:4;stroke-dasharray:none;stroke-opacity:1;marker-end:url(#marker1282)"
       d="m 124.4192,72.426616 c -0.69057,0.496066 -1.38098,0.992019 -2.18695,1.571059 -0.80597,0.579039 -1.72748,1.24115 -2.64887,1.903175"
       id="path5500"
       inkscape:connector-curvature="0"
       inkscape:path-effect="#path-effect5502"
       inkscape:original-d="m 124.4192,72.426616 c -0.69072,0.495852 -1.381,0.991988 -2.07147,1.488032 -0.92149,0.662008 -1.84311,1.323968 -2.76435,1.986202" />
    <path
       sodipodi:nodetypes="ccc"
       style="fill:none;stroke:#ff0000;stroke-width:0.40596306;stroke-linecap:butt;stroke-linejoin:miter;stroke-miterlimit:4;stroke-dasharray:none;stroke-opacity:1;marker-end:url(#marker5916)"
       d="m 130.77895,64.030676 c -0.4317,0.610191 -0.8633,1.22025 -1.3671,1.932482 -0.50381,0.712232 -1.07981,1.526635 -1.65573,2.340925"
       id="path5496"
       inkscape:connector-curvature="0"
       inkscape:path-effect="#path-effect5498"
       inkscape:original-d="m 130.77895,64.030676 c -0.43194,0.610019 -0.86334,1.220222 -1.29495,1.830375 -0.57602,0.814294 -1.1522,1.628571 -1.72788,2.443032" />
    <path
       sodipodi:nodetypes="ccc"
       style="fill:none;stroke:#ff0000;stroke-width:0.40596306;stroke-linecap:butt;stroke-linejoin:miter;stroke-miterlimit:4;stroke-dasharray:none;stroke-opacity:1;marker-end:url(#marker1296)"
       d="m 136.64059,53.251391 c -0.31827,0.639749 -0.63649,1.279383 -1.00792,2.026128 -0.37142,0.746746 -0.79605,1.600595 -1.22063,2.454346"
       id="path5492"
       inkscape:connector-curvature="0"
       inkscape:path-effect="#path-effect5494"
       inkscape:original-d="m 136.64059,53.251391 c -0.31855,0.639612 -0.63653,1.279363 -0.95474,1.919082 -0.42468,0.853753 -0.84951,1.707501 -1.27381,2.561392" />
    <path
       sodipodi:nodetypes="ccc"
       style="fill:none;stroke:#ff0000;stroke-width:0.40596306;stroke-linecap:butt;stroke-linejoin:miter;stroke-miterlimit:4;stroke-dasharray:none;stroke-opacity:1;marker-end:url(#marker5506)"
       d="m 140.14321,45.480801 c -0.28579,0.646374 -0.57154,1.292641 -0.90505,2.047121 -0.33351,0.754481 -0.71479,1.617172 -1.09603,2.479773"
       id="path5488"
       inkscape:connector-curvature="0"
       inkscape:path-effect="#path-effect5490"
       inkscape:original-d="m 140.14321,45.480801 c -0.28608,0.646247 -0.57158,1.292622 -0.85731,1.938969 -0.38133,0.862599 -0.76282,1.725197 -1.14377,2.587925" />
    <path
       inkscape:original-d="m 101.77875,72.426616 c 0.69072,0.495852 1.38101,0.991988 2.07148,1.488032 0.92148,0.662008 1.84311,1.323968 2.76435,1.986202"
       inkscape:path-effect="#path-effect3409-7-5"
       inkscape:connector-curvature="0"
       id="path3407-0-0"
       d="m 101.77875,72.426616 c 0.69057,0.496064 1.38099,0.992021 2.18695,1.571057 0.80597,0.579036 1.72749,1.241152 2.64888,1.903177"
       style="fill:none;stroke:#ff0000;stroke-width:0.40596306;stroke-linecap:butt;stroke-linejoin:miter;stroke-miterlimit:4;stroke-dasharray:none;stroke-opacity:1;marker-end:url(#marker3419-0-9)"
       sodipodi:nodetypes="ccc" />
    <path
       inkscape:original-d="m 95.419015,64.030676 c 0.43194,0.610019 0.86333,1.220222 1.29495,1.830375 0.57602,0.814294 1.1522,1.628571 1.72788,2.443032"
       inkscape:path-effect="#path-effect3409-7-6"
       inkscape:connector-curvature="0"
       id="path3407-0-6"
       d="m 95.419015,64.030676 c 0.431697,0.610191 0.863297,1.220245 1.367102,1.93248 0.503804,0.712234 1.079806,1.526637 1.655728,2.340927"
       style="fill:none;stroke:#ff0000;stroke-width:0.40596306;stroke-linecap:butt;stroke-linejoin:miter;stroke-miterlimit:4;stroke-dasharray:none;stroke-opacity:1;marker-end:url(#marker3419-0-6)"
       sodipodi:nodetypes="ccc" />
    <path
       inkscape:original-d="m 89.557365,53.251391 c 0.31856,0.639612 0.63654,1.279363 0.95475,1.919082 0.42467,0.853753 0.84951,1.707501 1.27381,2.561392"
       inkscape:path-effect="#path-effect3409-7"
       inkscape:connector-curvature="0"
       id="path3407-0"
       d="m 89.557365,53.251391 c 0.318279,0.639752 0.636498,1.279384 1.007923,2.026127 0.371426,0.746743 0.796056,1.600596 1.220637,2.454347"
       style="fill:none;stroke:#ff0000;stroke-width:0.40596306;stroke-linecap:butt;stroke-linejoin:miter;stroke-miterlimit:4;stroke-dasharray:none;stroke-opacity:1;marker-end:url(#marker3419-0)"
       sodipodi:nodetypes="ccc" />
    <path
       inkscape:original-d="m 86.054753,45.480801 c 0.286082,0.646247 0.571582,1.292622 0.857312,1.938969 0.38133,0.862599 0.76281,1.725197 1.14376,2.587925"
       inkscape:path-effect="#path-effect3409"
       inkscape:connector-curvature="0"
       id="path3407"
       d="m 86.054753,45.480801 c 0.285793,0.646375 0.571539,1.292641 0.905051,2.047122 0.333511,0.754481 0.714785,1.61717 1.096021,2.479772"
       style="fill:none;stroke:#ff0000;stroke-width:0.40596306;stroke-linecap:butt;stroke-linejoin:miter;stroke-miterlimit:4;stroke-dasharray:none;stroke-opacity:1;marker-end:url(#marker3419)"
       sodipodi:nodetypes="ccc" />
    <path
       inkscape:path-effect="#path-effect1698"
       style="fill:none;stroke:#000000;stroke-width:0.24357784;stroke-linecap:square;stroke-linejoin:miter;stroke-miterlimit:4;stroke-dasharray:none;stroke-opacity:1;marker-end:url(#marker1702)"
       d="m 77.383235,81.403062 c 23.812315,0 47.624815,0 71.437515,0"
       id="path1696"
       inkscape:connector-curvature="0"
       inkscape:original-d="m 77.383235,81.403062 c 23.812315,1.74e-4 47.624815,1.74e-4 71.437515,0" />
    <path
       style="fill:none;stroke:#fd0000;stroke-width:0.57920951;stroke-linecap:butt;stroke-linejoin:miter;stroke-miterlimit:4;stroke-dasharray:none;stroke-opacity:1;marker-end:url(#marker4258)"
       d="m 109.80208,56.229167 c 5.73319,0 11.46583,0 17.19792,0"
       id="path3989"
       inkscape:connector-curvature="0"
       inkscape:path-effect="#path-effect3991"
       inkscape:original-d="m 109.80208,56.229167 c 5.73319,-2.64e-4 11.46583,-2.64e-4 17.19792,0" />
  </g>
  <g
     inkscape:groupmode="layer"
     id="layer2"
     inkscape:label="Layer 2">
    <text
       xml:space="preserve"
       style="font-style:normal;font-variant:normal;font-weight:normal;font-stretch:normal;font-size:3.52777767px;line-height:1.25;font-family:sans-serif;-inkscape-font-specification:'sans-serif, Normal';font-variant-ligatures:normal;font-variant-caps:normal;font-variant-numeric:normal;font-feature-settings:normal;text-align:start;letter-spacing:0px;word-spacing:0px;writing-mode:lr-tb;text-anchor:start;fill:#000000;fill-opacity:1;stroke:none;stroke-width:0.26458332"
       x="98.45533"
       y="54.515312"
       id="text5884"><tspan
         sodipodi:role="line"
         id="tspan964"
         x="98.45533"
         y="54.515312">\text{\Huge $-\frac{\sigma E}{\sigma w}$ = Gradient}</tspan></text>
    <text
       xml:space="preserve"
       style="font-style:normal;font-variant:normal;font-weight:normal;font-stretch:normal;font-size:4.76636314px;line-height:1.25;font-family:sans-serif;-inkscape-font-specification:'sans-serif, Normal';font-variant-ligatures:normal;font-variant-caps:normal;font-variant-numeric:normal;font-feature-settings:normal;text-align:start;letter-spacing:0px;word-spacing:0px;writing-mode:lr-tb;text-anchor:start;fill:#000000;fill-opacity:1;stroke:none;stroke-width:0.35747549"
       x="247.12141"
       y="66.652473"
       id="text5892"
       transform="scale(0.65703213,1.5219956)"><tspan
         sodipodi:role="line"
         id="tspan1288"
         x="247.12141"
         y="66.652473"
         style="stroke-width:0.35747549">\Huge $w$</tspan></text>
    <text
       xml:space="preserve"
       style="font-style:normal;font-variant:normal;font-weight:normal;font-stretch:normal;font-size:3.97082543px;line-height:1.25;font-family:sans-serif;-inkscape-font-specification:'sans-serif, Normal';font-variant-ligatures:normal;font-variant-caps:normal;font-variant-numeric:normal;font-feature-settings:normal;text-align:start;letter-spacing:0px;word-spacing:0px;writing-mode:lr-tb;text-anchor:start;fill:#000000;fill-opacity:1;stroke:none;stroke-width:0.29781047"
       x="73.395706"
       y="17.415592"
       id="text5892-0"
       transform="scale(0.70762814,1.4131716)"><tspan
         sodipodi:role="line"
         id="tspan1290"
         x="73.395706"
         y="17.415592"
         style="stroke-width:0.29781047">\Huge $E$</tspan></text>
    <rect
       style="opacity:0;fill:#ffffff;fill-opacity:1;stroke:#fd0000;stroke-width:0.40000001;stroke-linecap:square;stroke-linejoin:miter;stroke-miterlimit:4;stroke-dasharray:none;stroke-dashoffset:0;stroke-opacity:1;paint-order:fill markers stroke"
       id="rect4602"
       width="158.75"
       height="100.54166"
       x="37.041668"
       y="11.25" />
  </g>
</svg>
