<?xml version="1.0" encoding="UTF-8" standalone="no"?>
<!-- Created with Inkscape (http://www.inkscape.org/) -->

<svg
   xmlns:dc="http://purl.org/dc/elements/1.1/"
   xmlns:cc="http://creativecommons.org/ns#"
   xmlns:rdf="http://www.w3.org/1999/02/22-rdf-syntax-ns#"
   xmlns:svg="http://www.w3.org/2000/svg"
   xmlns="http://www.w3.org/2000/svg"
   xmlns:sodipodi="http://sodipodi.sourceforge.net/DTD/sodipodi-0.dtd"
   xmlns:inkscape="http://www.inkscape.org/namespaces/inkscape"
   id="svg8"
   version="1.1"
   viewBox="0 0 210 297"
   height="297mm"
   width="210mm"
   inkscape:version="0.92.2 (5c3e80d, 2017-08-06)"
   sodipodi:docname="red_dist.svg">
  <sodipodi:namedview
     inkscape:window-maximized="1"
     inkscape:window-y="-9"
     inkscape:window-x="1671"
     inkscape:window-height="1001"
     inkscape:window-width="1920"
     showgrid="true"
     inkscape:current-layer="layer1"
     inkscape:document-units="mm"
     inkscape:cy="1017.4347"
     inkscape:cx="82.029544"
     inkscape:zoom="1"
     inkscape:pageshadow="2"
     inkscape:pageopacity="0.0"
     borderopacity="1.0"
     bordercolor="#666666"
     pagecolor="#ffffff"
     id="base">
    <inkscape:grid
       id="grid4504"
       type="xygrid" />
  </sodipodi:namedview>
  <defs
     id="defs2">
    <marker
       inkscape:stockid="TriangleOutM"
       orient="auto"
       refY="0.0"
       refX="0.0"
       id="marker6381"
       style="overflow:visible"
       inkscape:isstock="true">
      <path
         id="path6379"
         d="M 5.77,0.0 L -2.88,5.0 L -2.88,-5.0 L 5.77,0.0 z "
         style="fill-rule:evenodd;stroke:#000000;stroke-width:1pt;stroke-opacity:1;fill:#000000;fill-opacity:1"
         transform="scale(0.4)" />
    </marker>
    <marker
       inkscape:stockid="TriangleOutM"
       orient="auto"
       refY="0.0"
       refX="0.0"
       id="marker6335"
       style="overflow:visible"
       inkscape:isstock="true">
      <path
         id="path6333"
         d="M 5.77,0.0 L -2.88,5.0 L -2.88,-5.0 L 5.77,0.0 z "
         style="fill-rule:evenodd;stroke:#000000;stroke-width:1pt;stroke-opacity:1;fill:#000000;fill-opacity:1"
         transform="scale(0.4)" />
    </marker>
    <marker
       inkscape:stockid="TriangleOutS"
       orient="auto"
       refY="0.0"
       refX="0.0"
       id="marker6295"
       style="overflow:visible"
       inkscape:isstock="true">
      <path
         id="path6293"
         d="M 5.77,0.0 L -2.88,5.0 L -2.88,-5.0 L 5.77,0.0 z "
         style="fill-rule:evenodd;stroke:#000000;stroke-width:1pt;stroke-opacity:1;fill:#000000;fill-opacity:1"
         transform="scale(0.2)" />
    </marker>
    <marker
       inkscape:stockid="TriangleOutS"
       orient="auto"
       refY="0.0"
       refX="0.0"
       id="TriangleOutS"
       style="overflow:visible"
       inkscape:isstock="true">
      <path
         id="path4744"
         d="M 5.77,0.0 L -2.88,5.0 L -2.88,-5.0 L 5.77,0.0 z "
         style="fill-rule:evenodd;stroke:#000000;stroke-width:1pt;stroke-opacity:1;fill:#000000;fill-opacity:1"
         transform="scale(0.2)" />
    </marker>
    <marker
       inkscape:stockid="TriangleOutM"
       orient="auto"
       refY="0.0"
       refX="0.0"
       id="TriangleOutM"
       style="overflow:visible"
       inkscape:isstock="true">
      <path
         id="path4741"
         d="M 5.77,0.0 L -2.88,5.0 L -2.88,-5.0 L 5.77,0.0 z "
         style="fill-rule:evenodd;stroke:#000000;stroke-width:1pt;stroke-opacity:1;fill:#000000;fill-opacity:1"
         transform="scale(0.4)" />
    </marker>
    <marker
       inkscape:stockid="Arrow2Send"
       orient="auto"
       refY="0.0"
       refX="0.0"
       id="Arrow2Send"
       style="overflow:visible;"
       inkscape:isstock="true">
      <path
         id="path4629"
         style="fill-rule:evenodd;stroke-width:0.625;stroke-linejoin:round;stroke:#000000;stroke-opacity:1;fill:#000000;fill-opacity:1"
         d="M 8.7185878,4.0337352 L -2.2072895,0.016013256 L 8.7185884,-4.0017078 C 6.9730900,-1.6296469 6.9831476,1.6157441 8.7185878,4.0337352 z "
         transform="scale(0.3) rotate(180) translate(-2.3,0)" />
    </marker>
    <marker
       inkscape:stockid="Arrow1Send"
       orient="auto"
       refY="0.0"
       refX="0.0"
       id="Arrow1Send"
       style="overflow:visible;"
       inkscape:isstock="true">
      <path
         id="path4611"
         d="M 0.0,0.0 L 5.0,-5.0 L -12.5,0.0 L 5.0,5.0 L 0.0,0.0 z "
         style="fill-rule:evenodd;stroke:#000000;stroke-width:1pt;stroke-opacity:1;fill:#000000;fill-opacity:1"
         transform="scale(0.2) rotate(180) translate(6,0)" />
    </marker>
    <marker
       inkscape:stockid="Arrow1Mend"
       orient="auto"
       refY="0.0"
       refX="0.0"
       id="marker6203"
       style="overflow:visible;"
       inkscape:isstock="true">
      <path
         id="path6201"
         d="M 0.0,0.0 L 5.0,-5.0 L -12.5,0.0 L 5.0,5.0 L 0.0,0.0 z "
         style="fill-rule:evenodd;stroke:#000000;stroke-width:1pt;stroke-opacity:1;fill:#000000;fill-opacity:1"
         transform="scale(0.4) rotate(180) translate(10,0)" />
    </marker>
    <marker
       inkscape:isstock="true"
       style="overflow:visible;"
       id="marker6175"
       refX="0.0"
       refY="0.0"
       orient="auto"
       inkscape:stockid="Arrow2Mend">
      <path
         transform="scale(0.6) rotate(180) translate(0,0)"
         d="M 8.7185878,4.0337352 L -2.2072895,0.016013256 L 8.7185884,-4.0017078 C 6.9730900,-1.6296469 6.9831476,1.6157441 8.7185878,4.0337352 z "
         style="fill-rule:evenodd;stroke-width:0.625;stroke-linejoin:round;stroke:#000000;stroke-opacity:1;fill:#000000;fill-opacity:1"
         id="path6173" />
    </marker>
    <marker
       inkscape:stockid="Arrow1Mend"
       orient="auto"
       refY="0.0"
       refX="0.0"
       id="Arrow1Mend"
       style="overflow:visible;"
       inkscape:isstock="true">
      <path
         id="path4605"
         d="M 0.0,0.0 L 5.0,-5.0 L -12.5,0.0 L 5.0,5.0 L 0.0,0.0 z "
         style="fill-rule:evenodd;stroke:#000000;stroke-width:1pt;stroke-opacity:1;fill:#000000;fill-opacity:1"
         transform="scale(0.4) rotate(180) translate(10,0)" />
    </marker>
    <marker
       inkscape:stockid="Arrow1Lend"
       orient="auto"
       refY="0.0"
       refX="0.0"
       id="Arrow1Lend"
       style="overflow:visible;"
       inkscape:isstock="true">
      <path
         id="path4599"
         d="M 0.0,0.0 L 5.0,-5.0 L -12.5,0.0 L 5.0,5.0 L 0.0,0.0 z "
         style="fill-rule:evenodd;stroke:#000000;stroke-width:1pt;stroke-opacity:1;fill:#000000;fill-opacity:1"
         transform="scale(0.8) rotate(180) translate(12.5,0)" />
    </marker>
    <marker
       inkscape:stockid="Arrow2Mend"
       orient="auto"
       refY="0"
       refX="0"
       id="Arrow2Mend-7"
       style="overflow:visible"
       inkscape:isstock="true">
      <path
         inkscape:connector-curvature="0"
         id="path4623-1"
         style="fill:#000000;fill-opacity:1;fill-rule:evenodd;stroke:#000000;stroke-width:0.625;stroke-linejoin:round;stroke-opacity:1"
         d="M 8.7185878,4.0337352 -2.2072895,0.01601326 8.7185884,-4.0017078 c -1.7454984,2.3720609 -1.7354408,5.6174519 -6e-7,8.035443 z"
         transform="scale(-0.6)" />
    </marker>
    <marker
       inkscape:stockid="Arrow2Mend"
       orient="auto"
       refY="0"
       refX="0"
       id="Arrow2Mend-1"
       style="overflow:visible"
       inkscape:isstock="true">
      <path
         inkscape:connector-curvature="0"
         id="path4623-6"
         style="fill:#000000;fill-opacity:1;fill-rule:evenodd;stroke:#000000;stroke-width:0.625;stroke-linejoin:round;stroke-opacity:1"
         d="M 8.7185878,4.0337352 -2.2072895,0.01601326 8.7185884,-4.0017078 c -1.7454984,2.3720609 -1.7354408,5.6174519 -6e-7,8.035443 z"
         transform="scale(-0.6)" />
    </marker>
  </defs>
  <metadata
     id="metadata5">
    <rdf:RDF>
      <cc:Work
         rdf:about="">
        <dc:format>image/svg+xml</dc:format>
        <dc:type
           rdf:resource="http://purl.org/dc/dcmitype/StillImage" />
        <dc:title></dc:title>
      </cc:Work>
    </rdf:RDF>
  </metadata>
  <g
     id="layer1"
     inkscape:groupmode="layer"
     inkscape:label="Layer 1">
    <path
       inkscape:connector-curvature="0"
       id="path4506"
       d="m 46.566654,74.749992 c 126.999886,0 126.999886,0 126.999886,0"
       style="fill:none;stroke:#000000;stroke-width:0.77999997;stroke-linecap:butt;stroke-linejoin:miter;stroke-miterlimit:4;stroke-dasharray:none;stroke-opacity:1;marker-end:url(#marker6335)" />
    <path
       id="path4571"
       title="t (1/sqrt(2*pi))*exp(-pow(t,2)/2)"
       d="m 54.504154,74.749992 c 0.07662,-0.0092 0.153242,-0.01941 0.229863,-0.02866 0.07662,-0.01017 0.153243,-0.02034 0.229864,-0.03051 0.07662,-0.01017 0.153243,-0.02126 0.229863,-0.03236 0.07662,-0.01109 0.153243,-0.02219 0.229865,-0.0342 0.07662,-0.01202 0.153241,-0.02311 0.229863,-0.03605 0.07662,-0.01202 0.153243,-0.02496 0.229864,-0.0379 0.07662,-0.01294 0.153242,-0.02588 0.229863,-0.03975 0.07662,-0.01387 0.153243,-0.02773 0.229864,-0.0416 0.07662,-0.01387 0.153242,-0.02866 0.229864,-0.04345 0.07662,-0.01479 0.153242,-0.03051 0.229864,-0.04622 0.07662,-0.01572 0.153242,-0.03143 0.229863,-0.04807 0.07662,-0.01664 0.153243,-0.03328 0.229863,-0.05084 0.07662,-0.01757 0.153243,-0.03513 0.229865,-0.05362 0.07662,-0.01849 0.153242,-0.03698 0.229863,-0.05547 0.07662,-0.01941 0.153243,-0.03883 0.229864,-0.05824 0.07662,-0.02034 0.153242,-0.04067 0.229863,-0.06101 0.07662,-0.02126 0.153243,-0.04252 0.229864,-0.06471 0.07662,-0.02219 0.153242,-0.04437 0.229864,-0.06748 0.07662,-0.02311 0.153243,-0.04622 0.229864,-0.07026 0.07662,-0.02404 0.153242,-0.049 0.229863,-0.07396 0.07662,-0.02496 0.153243,-0.05084 0.229864,-0.07673 0.07662,-0.02588 0.153242,-0.05269 0.229864,-0.08043 0.07662,-0.02773 0.153242,-0.05547 0.229863,-0.08413 0.07662,-0.02866 0.153243,-0.05824 0.229864,-0.08782 0.07662,-0.02958 0.153243,-0.06009 0.229863,-0.09152 0.07662,-0.03143 0.153243,-0.06286 0.229865,-0.09549 0.07662,-0.03236 0.153241,-0.06564 0.229863,-0.09956 0.07662,-0.03421 0.153243,-0.06841 0.229864,-0.103723 0.07662,-0.03513 0.153242,-0.07118 0.229863,-0.108069 0.07662,-0.03698 0.153243,-0.07395 0.229864,-0.112505 0.07662,-0.0379 0.153242,-0.07765 0.229864,-0.117035 0.07662,-0.03975 0.153242,-0.08043 0.229864,-0.12175 0.07662,-0.0416 0.153242,-0.0832 0.229863,-0.126557 0.07662,-0.04345 0.153243,-0.0869 0.229863,-0.131549 0.07662,-0.04437 0.153243,-0.0906 0.229865,-0.136634 0.07662,-0.04622 0.153242,-0.09365 0.229863,-0.14181 0.07662,-0.04807 0.153243,-0.09716 0.229864,-0.14708 0.07662,-0.04992 0.153242,-0.100765 0.229863,-0.152627 0.07662,-0.05177 0.153243,-0.104462 0.229864,-0.158173 0.07662,-0.05362 0.153242,-0.108253 0.229864,-0.163905 0.07662,-0.05547 0.153243,-0.112135 0.229864,-0.169728 0.07662,-0.05732 0.153242,-0.116111 0.229863,-0.175646 0.07662,-0.05916 0.153243,-0.120178 0.229864,-0.181746 0.07662,-0.06194 0.153242,-0.124246 0.229864,-0.187941 0.07662,-0.06379 0.153242,-0.128406 0.229863,-0.194227 0.07662,-0.06564 0.153243,-0.132658 0.229864,-0.200605 0.07662,-0.06841 0.153243,-0.137003 0.229863,-0.207169 0.07662,-0.07026 0.153243,-0.141441 0.229865,-0.213825 0.07662,-0.07211 0.153241,-0.145878 0.229863,-0.220573 0.07662,-0.07488 0.153243,-0.150408 0.229864,-0.227322 0.07662,-0.07673 0.153242,-0.155031 0.229863,-0.234348 0.07662,-0.0795 0.153243,-0.159653 0.229864,-0.241281 0.07662,-0.08135 0.153242,-0.16446 0.229864,-0.2484 0.07662,-0.08413 0.153242,-0.169174 0.229864,-0.25561 0.07662,-0.08597 0.153242,-0.173981 0.229863,-0.262821 0.07662,-0.08875 0.153243,-0.178881 0.229863,-0.270216 0.07662,-0.09152 0.153243,-0.183781 0.229865,-0.27752 0.07662,-0.09374 0.153242,-0.188772 0.229863,-0.285007 0.07662,-0.09624 0.153243,-0.193765 0.229864,-0.292496 0.07662,-0.09873 0.153242,-0.198756 0.229863,-0.299984 0.07662,-0.101227 0.153243,-0.203748 0.229864,-0.307564 0.07662,-0.103815 0.153242,-0.208833 0.229864,-0.315144 0.07662,-0.106312 0.153242,-0.213918 0.229864,-0.322725 0.07662,-0.108808 0.153242,-0.21891 0.229863,-0.330306 0.07662,-0.111396 0.153243,-0.223994 0.229864,-0.337886 0.07662,-0.113892 0.153242,-0.229079 0.229864,-0.345467 0.07662,-0.116388 0.153242,-0.23407 0.229863,-0.353047 0.07662,-0.118976 0.153243,-0.239155 0.229864,-0.360535 0.07662,-0.121472 0.153243,-0.244147 0.229863,-0.368023 0.07662,-0.123968 0.153243,-0.249139 0.229864,-0.375511 0.07662,-0.126372 0.153242,-0.254039 0.229864,-0.382907 0.07662,-0.128868 0.153243,-0.258938 0.229864,-0.390117 0.07662,-0.131272 0.153242,-0.263745 0.229863,-0.397328 0.07662,-0.133676 0.153243,-0.26846 0.229864,-0.404447 0.07662,-0.135986 0.153242,-0.273174 0.229864,-0.411472 0.07662,-0.138297 0.153242,-0.277797 0.229864,-0.418313 0.07662,-0.140609 0.153242,-0.282327 0.229863,-0.425062 0.07662,-0.142827 0.153243,-0.286671 0.229863,-0.431717 0.07662,-0.144954 0.153243,-0.291017 0.229865,-0.438097 0.07662,-0.147079 0.153242,-0.295269 0.229863,-0.444382 0.07662,-0.149206 0.153243,-0.299337 0.229864,-0.450484 0.07662,-0.151147 0.153242,-0.303312 0.229863,-0.456401 0.07662,-0.153088 0.153243,-0.307101 0.229864,-0.462039 0.07662,-0.154938 0.153242,-0.3108 0.229864,-0.467494 0.07662,-0.156694 0.153242,-0.314313 0.229864,-0.472763 0.07662,-0.158451 0.153242,-0.317641 0.229863,-0.477663 0.07662,-0.160022 0.153243,-0.320876 0.229864,-0.482377 0.07662,-0.161594 0.153242,-0.323835 0.229864,-0.486815 0.07662,-0.16298 0.153242,-0.3267 0.229863,-0.490975 0.07662,-0.164367 0.153243,-0.329288 0.229864,-0.494857 0.07662,-0.165569 0.153243,-0.331693 0.229863,-0.498463 0.07662,-0.166678 0.153243,-0.333911 0.229864,-0.501699 0.07662,-0.167695 0.153242,-0.335944 0.229864,-0.504564 0.07662,-0.168619 0.153243,-0.337701 0.229864,-0.50706 0.07662,-0.169451 0.153242,-0.33918 0.229863,-0.509279 0.07662,-0.170098 0.153243,-0.340474 0.229864,-0.511128 0.07662,-0.170653 0.153242,-0.341491 0.229864,-0.512607 0.07662,-0.171115 0.153242,-0.342323 0.229864,-0.513716 0.07662,-0.171393 0.153242,-0.342878 0.229863,-0.514363 0.07662,-0.171485 0.153243,-0.343063 0.229863,-0.514641 0.07662,-0.171578 0.153243,-0.343063 0.229865,-0.514456 0.07662,-0.171392 0.153242,-0.342785 0.229863,-0.513901 0.07662,-0.171208 0.153243,-0.342138 0.229864,-0.512976 0.07662,-0.170746 0.153242,-0.341307 0.229863,-0.511498 0.07662,-0.170191 0.153243,-0.340105 0.229864,-0.509649 0.07662,-0.169544 0.153242,-0.338625 0.229864,-0.507337 0.07662,-0.168712 0.153242,-0.336869 0.229864,-0.504564 0.07662,-0.167696 0.153242,-0.334836 0.229863,-0.501329 0.07662,-0.166493 0.153243,-0.332432 0.229864,-0.497631 0.07662,-0.165199 0.153242,-0.329751 0.229864,-0.493471 0.07662,-0.16372 0.153242,-0.3267 0.229863,-0.488848 0.07662,-0.162149 0.153243,-0.323465 0.229864,-0.483764 0.07662,-0.160392 0.15324,-0.319767 0.229865,-0.478218 0.0766,-0.15845 0.15325,-0.315884 0.22987,-0.472208 0.0766,-0.156325 0.15324,-0.31154 0.22986,-0.465645 0.0766,-0.154106 0.153237,-0.30701 0.229857,-0.458712 0.0766,-0.151702 0.15324,-0.30211 0.22987,-0.451223 0.0766,-0.149114 0.153237,-0.296933 0.229867,-0.443366 0.0766,-0.146433 0.15324,-0.291386 0.22986,-0.434953 0.0766,-0.143567 0.153237,-0.285655 0.229857,-0.426171 0.0766,-0.140516 0.15324,-0.279461 0.22986,-0.416834 0.0766,-0.137373 0.15324,-0.273082 0.229867,-0.407127 0.0766,-0.134045 0.15324,-0.266334 0.22986,-0.396959 0.0766,-0.130532 0.15324,-0.2594 0.22986,-0.386327 0.0766,-0.126927 0.153237,-0.252097 0.229857,-0.375326 0.0766,-0.123229 0.15325,-0.244517 0.22988,-0.363863 0.0766,-0.119347 0.153237,-0.236659 0.229857,-0.35203 0.0766,-0.115372 0.15324,-0.228617 0.22986,-0.339828 0.0766,-0.111211 0.15324,-0.220296 0.229857,-0.327162 0.0766,-0.106867 0.15324,-0.211607 0.22987,-0.31422 0.0766,-0.102522 0.15324,-0.202825 0.22986,-0.300816 0.0766,-0.09799 0.153237,-0.193765 0.229857,-0.287134 0.0766,-0.09337 0.15324,-0.184428 0.22986,-0.273082 0.0766,-0.08875 0.153247,-0.174906 0.229867,-0.258753 0.0766,-0.08413 0.15325,-0.165199 0.22987,-0.244055 0.0766,-0.07858 0.15324,-0.155307 0.229857,-0.229171 0.0766,-0.07396 0.15324,-0.145138 0.22986,-0.213917 0.0766,-0.06841 0.15324,-0.134877 0.22986,-0.198479 0.0766,-0.06379 0.153247,-0.124524 0.229867,-0.182764 0.0766,-0.05824 0.15324,-0.113892 0.22986,-0.166863 0.0766,-0.05269 0.153237,-0.103169 0.229857,-0.150778 0.0766,-0.04715 0.15325,-0.09245 0.22987,-0.134414 0.0766,-0.04253 0.15325,-0.08135 0.229867,-0.118053 0.0766,-0.03698 0.15324,-0.07026 0.22986,-0.101412 0.0766,-0.03143 0.15324,-0.05916 0.229857,-0.08505 0.0766,-0.02588 0.15324,-0.04807 0.22986,-0.06748 0.0766,-0.01941 0.15325,-0.03698 0.22987,-0.05084 0.0766,-0.01387 0.153237,-0.02589 0.229857,-0.03421 0.0766,-0.0085 0.15324,-0.01387 0.22986,-0.01664 0.0766,-0.0028 0.153247,-0.0028 0.229867,0 0.0766,0.0028 0.15325,0.0085 0.22987,0.01664 0.0766,0.0085 0.15324,0.01941 0.229857,0.03421 0.0766,0.01387 0.15324,0.03143 0.22986,0.05084 0.0766,0.01941 0.15324,0.04252 0.22986,0.06748 0.0766,0.02589 0.153247,0.05362 0.229867,0.08505 0.0766,0.03143 0.15324,0.06471 0.22986,0.101412 0.0766,0.03698 0.153237,0.07581 0.229857,0.118053 0.0766,0.04252 0.15325,0.0869 0.22987,0.134414 0.0766,0.04715 0.15325,0.09781 0.229867,0.150778 0.0766,0.05269 0.15324,0.108623 0.22986,0.166863 0.0766,0.05824 0.15324,0.119254 0.22986,0.182764 0.0766,0.06379 0.153237,0.1297 0.229857,0.198479 0.0766,0.06841 0.15325,0.140054 0.22987,0.213917 0.0766,0.07396 0.153237,0.150223 0.229857,0.229171 0.0766,0.07858 0.15324,0.1603 0.22986,0.244055 0.0766,0.08412 0.15324,0.170098 0.229867,0.258753 0.0766,0.08875 0.15325,0.179713 0.22987,0.273082 0.0766,0.09337 0.15324,0.189142 0.229857,0.287134 0.0766,0.09799 0.15324,0.198294 0.22986,0.300816 0.0766,0.102521 0.15324,0.207261 0.22986,0.31422 0.0766,0.106958 0.153237,0.215951 0.229867,0.327162 0.0766,0.111211 0.15324,0.224456 0.22986,0.339828 0.0766,0.115371 0.153237,0.232683 0.229857,0.35203 0.0766,0.119346 0.15324,0.240634 0.22987,0.363863 0.0766,0.123229 0.15324,0.248399 0.229867,0.375326 0.0766,0.126927 0.15324,0.255795 0.22986,0.386327 0.0766,0.130532 0.15324,0.262914 0.22986,0.396959 0.0766,0.134045 0.153237,0.269754 0.229857,0.407127 0.0766,0.137373 0.15324,0.276318 0.22987,0.416834 0.0766,0.140516 0.153237,0.282604 0.229857,0.426171 0.0766,0.143567 0.15324,0.28852 0.22986,0.434953 0.0766,0.146433 0.15324,0.294252 0.229857,0.443366 0.0766,0.149113 0.15325,0.299521 0.22988,0.451223 0.0766,0.151702 0.15324,0.304606 0.22986,0.458712 0.0766,0.154105 0.153237,0.30932 0.229857,0.465645 0.0766,0.156324 0.15324,0.313758 0.22986,0.472208 0.0766,0.158451 0.153237,0.317826 0.229867,0.478218 0.0766,0.160391 0.15324,0.321615 0.22986,0.483764 0.0766,0.162148 0.15324,0.325128 0.229857,0.488848 0.0766,0.16372 0.15324,0.328272 0.22986,0.493471 0.0766,0.165199 0.15325,0.331138 0.22987,0.497631 0.0766,0.166493 0.153247,0.333633 0.229867,0.501329 0.0766,0.167695 0.15324,0.335852 0.22986,0.504564 0.0766,0.168619 0.153237,0.337793 0.229857,0.507337 0.0766,0.169544 0.15324,0.339458 0.22986,0.509649 0.0766,0.170191 0.153247,0.340752 0.229867,0.511498 0.0766,0.170745 0.15324,0.341768 0.22986,0.512976 0.0766,0.171208 0.15324,0.342509 0.229857,0.513901 0.0766,0.171393 0.15325,0.342971 0.22987,0.514456 0.0766,0.171578 0.15325,0.343156 0.22987,0.514641 0.0766,0.171485 0.15324,0.34297 0.22986,0.514363 0.0766,0.171393 0.15324,0.342601 0.22986,0.513716 0.0766,0.171023 0.15324,0.341954 0.22986,0.512607 0.0766,0.170654 0.15325,0.34103 0.22987,0.511128 0.0766,0.170099 0.15324,0.33992 0.22986,0.509279 0.0766,0.169452 0.15324,0.338441 0.22986,0.50706 0.0766,0.16862 0.15325,0.336869 0.22987,0.504564 0.0766,0.167695 0.15325,0.334928 0.22987,0.501699 0.0766,0.166678 0.15324,0.332894 0.22986,0.498463 0.0766,0.165569 0.15324,0.33049 0.22986,0.494857 0.0766,0.164367 0.15324,0.327995 0.22986,0.490975 0.0766,0.16298 0.15325,0.325314 0.22987,0.486815 0.0766,0.161593 0.15324,0.322355 0.22986,0.482377 0.0766,0.160022 0.15324,0.319305 0.22986,0.477663 0.0766,0.15845 0.15324,0.315977 0.22987,0.472763 0.0766,0.156694 0.15325,0.312556 0.22987,0.467494 0.0766,0.154938 0.15324,0.308951 0.22986,0.462039 0.0766,0.153089 0.15324,0.305254 0.22986,0.456401 0.0766,0.151147 0.15324,0.301278 0.22986,0.450484 0.0766,0.149206 0.15325,0.297303 0.22987,0.444382 0.0766,0.14708 0.15324,0.293143 0.22986,0.438097 0.0766,0.144953 0.15324,0.28889 0.22986,0.431717 0.0766,0.142828 0.15324,0.284546 0.22987,0.425062 0.0766,0.140609 0.15325,0.280016 0.22987,0.418313 0.0766,0.138298 0.15324,0.275486 0.22986,0.411472 0.0766,0.135987 0.15324,0.270864 0.22986,0.404447 0.0766,0.133675 0.15324,0.266149 0.22986,0.397328 0.0766,0.131272 0.15324,0.261342 0.22987,0.390117 0.0766,0.128868 0.15324,0.256442 0.22986,0.382907 0.0766,0.126372 0.15324,0.251543 0.22986,0.375511 0.0766,0.123969 0.15324,0.246643 0.22986,0.368023 0.0766,0.121473 0.15325,0.241651 0.22988,0.360535 0.0766,0.118977 0.15324,0.236659 0.22986,0.353047 0.0766,0.116388 0.15324,0.231575 0.22986,0.345467 0.0766,0.113892 0.15324,0.22649 0.22986,0.337886 0.0766,0.111396 0.15324,0.221498 0.22987,0.330306 0.0766,0.108807 0.15324,0.216413 0.22986,0.322725 0.0766,0.106311 0.15324,0.211329 0.22986,0.315144 0.0766,0.103816 0.15324,0.206245 0.22986,0.307564 0.0766,0.101228 0.15325,0.201253 0.22988,0.299984 0.0766,0.09873 0.15324,0.196261 0.22986,0.292496 0.0766,0.09623 0.15324,0.191268 0.22986,0.285007 0.0766,0.09374 0.15324,0.186277 0.22986,0.27752 0.0766,0.09152 0.15324,0.181377 0.22986,0.270216 0.0766,0.08875 0.15325,0.176478 0.22987,0.262821 0.0766,0.08597 0.15324,0.171578 0.22986,0.25561 0.0766,0.08413 0.15324,0.166771 0.22986,0.2484 0.0766,0.08135 0.15325,0.162055 0.22987,0.241281 0.0766,0.0795 0.15325,0.157341 0.22987,0.234348 0.0766,0.07673 0.15324,0.152719 0.22986,0.227322 0.0766,0.07488 0.15324,0.148189 0.22986,0.220573 0.0766,0.07211 0.15324,0.143659 0.22986,0.213825 0.0766,0.07026 0.15325,0.139222 0.22987,0.207169 0.0766,0.06841 0.15324,0.134785 0.22986,0.200605 0.0766,0.06564 0.15324,0.130533 0.22986,0.194227 0.0766,0.06379 0.15325,0.12628 0.22987,0.187941 0.0766,0.06194 0.15325,0.122212 0.22987,0.181746 0.0766,0.05917 0.15324,0.118052 0.22986,0.175646 0.0766,0.05732 0.15324,0.114077 0.22986,0.169728 0.0766,0.05547 0.15324,0.110195 0.22986,0.163905 0.0766,0.05362 0.15325,0.106404 0.22987,0.158173 0.0766,0.05177 0.15324,0.102614 0.22986,0.152627 0.0766,0.04992 0.15324,0.09901 0.22986,0.14708 0.0766,0.04807 0.15325,0.0954 0.22987,0.14181 0.0766,0.04622 0.15325,0.09152 0.22987,0.136634 0.0766,0.04437 0.15324,0.08875 0.22986,0.131549 0.0766,0.04345 0.15324,0.08505 0.22986,0.126557 0.0766,0.0416 0.15324,0.08228 0.22986,0.12175 0.0766,0.03975 0.15325,0.07858 0.22987,0.117035 0.0766,0.0379 0.15324,0.07581 0.22986,0.112505 0.0766,0.03698 0.15324,0.07303 0.22986,0.108069 0.0766,0.03513 0.15324,0.07026 0.22987,0.103723 0.0766,0.0342 0.15325,0.06748 0.22987,0.09956 0.0766,0.03236 0.15324,0.06471 0.22986,0.09549 0.0766,0.03143 0.15324,0.06194 0.22986,0.09152 0.0766,0.02958 0.15324,0.05917 0.22986,0.08782 0.0766,0.02866 0.15325,0.05639 0.22987,0.08413 0.0766,0.02773 0.15324,0.05454 0.22986,0.08043 0.0766,0.02589 0.15324,0.05177 0.22986,0.07673 0.0766,0.02496 0.15324,0.04992 0.22987,0.07396 0.0766,0.02403 0.15324,0.04715 0.22987,0.07026 0.0766,0.02311 0.15324,0.0453 0.22986,0.06748 0.0766,0.02219 0.15324,0.04345 0.22986,0.06471 0.0766,0.02126 0.15324,0.0416 0.22986,0.06101 0.0766,0.02034 0.15324,0.03975 0.22987,0.05824 0.0766,0.01941 0.15324,0.0379 0.22986,0.05547 0.0766,0.01849 0.15324,0.03605 0.22986,0.05362 0.0766,0.01756 0.15324,0.0342 0.22986,0.05084 0.0766,0.01664 0.15325,0.03236 0.22988,0.04807 0.0766,0.01572 0.15324,0.03143 0.22986,0.04622 0.0766,0.01479 0.15324,0.02958 0.22986,0.04345 0.0766,0.01387 0.15324,0.02773 0.22986,0.0416 0.0766,0.01387 0.15324,0.02681 0.22987,0.03975 0.0766,0.01294 0.15324,0.02588 0.22986,0.0379 0.0766,0.01202 0.15324,0.02404 0.22986,0.03605 0.0766,0.01202 0.15324,0.02311 0.22986,0.0342 0.0766,0.01109 0.15325,0.02219 0.22988,0.03236 0.0766,0.01017 0.15324,0.02034 0.22986,0.03051 0.0766,0.01017 0.15324,0.01941 0.22986,0.02866"
       style="opacity:1;fill:#000000;fill-opacity:0.39215686;stroke:#000000;stroke-width:0.81447744;stroke-miterlimit:4;stroke-dasharray:none;stroke-dashoffset:0;stroke-opacity:1"
       inkscape:connector-curvature="0" />
    <path
       id="path4571-8"
       title="t (1/sqrt(2*pi))*exp(-pow(t,2)/2)"
       d="m 91.608178,74.749992 c 0.0766,-0.0092 0.15325,-0.01942 0.22987,-0.02866 0.0766,-0.01016 0.15324,-0.02035 0.229857,-0.03051 0.0766,-0.01016 0.15324,-0.02127 0.22986,-0.03236 0.0766,-0.01109 0.15325,-0.0222 0.22987,-0.0342 0.0766,-0.01201 0.153237,-0.0231 0.229857,-0.03605 0.0766,-0.01201 0.15325,-0.02495 0.22987,-0.0379 0.0766,-0.01294 0.153237,-0.02588 0.229857,-0.03975 0.0766,-0.01386 0.15324,-0.02773 0.22986,-0.0416 0.0766,-0.01387 0.15325,-0.02866 0.229867,-0.04345 0.0766,-0.01479 0.15324,-0.03051 0.22986,-0.04622 0.0766,-0.01572 0.15324,-0.03143 0.22986,-0.04807 0.0766,-0.01664 0.153247,-0.03328 0.229867,-0.05084 0.0766,-0.01757 0.15324,-0.03513 0.22986,-0.05362 0.0766,-0.01849 0.153237,-0.03698 0.229867,-0.05547 0.0766,-0.01942 0.15324,-0.03883 0.22986,-0.05824 0.0766,-0.02035 0.15324,-0.04067 0.229857,-0.06101 0.0766,-0.02125 0.15325,-0.04252 0.22987,-0.06471 0.0766,-0.0222 0.15324,-0.04437 0.22986,-0.06748 0.0766,-0.0231 0.153237,-0.04622 0.229857,-0.07026 0.0766,-0.02405 0.15325,-0.049 0.22987,-0.07396 0.0766,-0.02495 0.153237,-0.05084 0.229857,-0.07673 0.0766,-0.02588 0.15324,-0.05269 0.22987,-0.08043 0.0766,-0.02773 0.15324,-0.05547 0.229857,-0.08413 0.0766,-0.02866 0.15324,-0.05824 0.22986,-0.08782 0.0766,-0.02958 0.15325,-0.06009 0.229867,-0.09152 0.0766,-0.03143 0.15324,-0.06286 0.22986,-0.09549 0.0766,-0.03236 0.15324,-0.06564 0.22986,-0.09956 0.0766,-0.03421 0.153247,-0.06841 0.229867,-0.103722 0.0766,-0.03513 0.15324,-0.07118 0.22986,-0.108069 0.0766,-0.03698 0.153237,-0.07395 0.229857,-0.112506 0.0766,-0.0379 0.15325,-0.07765 0.22987,-0.117033 0.0766,-0.03975 0.15324,-0.08043 0.229857,-0.121751 0.0766,-0.0416 0.15324,-0.0832 0.22987,-0.126558 0.0766,-0.04345 0.15324,-0.0869 0.22986,-0.131548 0.0766,-0.04437 0.153237,-0.0906 0.229857,-0.136633 0.0766,-0.04622 0.15325,-0.09365 0.22987,-0.141812 0.0766,-0.04807 0.153237,-0.09716 0.229857,-0.147079 0.0766,-0.04992 0.15324,-0.100764 0.22986,-0.152627 0.0766,-0.05177 0.15325,-0.104463 0.22987,-0.158174 0.0766,-0.05362 0.15324,-0.108251 0.22986,-0.163904 0.0766,-0.05547 0.15324,-0.112135 0.22987,-0.169727 0.0766,-0.05732 0.15324,-0.116113 0.22986,-0.175647 0.0766,-0.05916 0.15324,-0.120179 0.22986,-0.181747 0.0766,-0.06194 0.15324,-0.124246 0.22987,-0.187939 0.0766,-0.06379 0.15324,-0.128408 0.22986,-0.194228 0.0766,-0.06564 0.15324,-0.132657 0.22986,-0.200604 0.0766,-0.06841 0.15325,-0.137004 0.22987,-0.207169 0.0766,-0.07026 0.15324,-0.141441 0.22986,-0.213826 0.0766,-0.07211 0.15324,-0.145878 0.22986,-0.220572 0.0766,-0.07488 0.15325,-0.150408 0.22987,-0.227322 0.0766,-0.07673 0.15324,-0.155033 0.22986,-0.23435 0.0766,-0.0795 0.15324,-0.159652 0.22987,-0.241279 0.0766,-0.08135 0.15324,-0.164462 0.22986,-0.248401 0.0766,-0.08413 0.15324,-0.169175 0.22986,-0.255609 0.0766,-0.08597 0.15325,-0.173982 0.22987,-0.262821 0.0766,-0.08875 0.15324,-0.178882 0.22986,-0.270216 0.0766,-0.09152 0.15324,-0.183783 0.22986,-0.277522 0.0766,-0.09374 0.15325,-0.188772 0.22987,-0.285006 0.0766,-0.09624 0.15324,-0.193765 0.22986,-0.292497 0.0766,-0.09873 0.15324,-0.198755 0.22986,-0.299982 0.0766,-0.101227 0.15325,-0.203748 0.22987,-0.307565 0.0766,-0.103815 0.15324,-0.208833 0.22986,-0.315145 0.0766,-0.10631 0.15324,-0.213916 0.22987,-0.322723 0.0766,-0.10881 0.15324,-0.218911 0.22986,-0.330306 0.0766,-0.111397 0.15324,-0.223996 0.22986,-0.337886 0.0766,-0.113893 0.15325,-0.229079 0.22987,-0.345469 0.0766,-0.116388 0.15324,-0.234069 0.22986,-0.353047 0.0766,-0.118975 0.15324,-0.239154 0.22986,-0.360534 0.0766,-0.121473 0.15325,-0.244147 0.22987,-0.368023 0.0766,-0.123967 0.15324,-0.249139 0.22986,-0.375512 0.0766,-0.12637 0.15324,-0.254037 0.22987,-0.382905 0.0766,-0.128868 0.15324,-0.25894 0.22986,-0.390118 0.0766,-0.131273 0.15324,-0.263744 0.22986,-0.397327 0.0766,-0.133678 0.15325,-0.268462 0.22987,-0.404448 0.0766,-0.135987 0.15324,-0.273174 0.22986,-0.411472 0.0766,-0.138297 0.15324,-0.277796 0.22986,-0.418314 0.0766,-0.140607 0.15325,-0.282326 0.22987,-0.425061 0.0766,-0.142827 0.15324,-0.286671 0.22986,-0.431718 0.0766,-0.144954 0.15324,-0.291015 0.22987,-0.438097 0.0766,-0.147079 0.15324,-0.295267 0.22986,-0.444381 0.0766,-0.149206 0.15324,-0.299337 0.22986,-0.450484 0.0766,-0.151147 0.15324,-0.303312 0.22987,-0.456401 0.0766,-0.153088 0.15324,-0.307101 0.22986,-0.462039 0.0766,-0.154938 0.15324,-0.3108 0.22986,-0.467494 0.0766,-0.156694 0.15325,-0.314313 0.22987,-0.472763 0.0766,-0.158451 0.15324,-0.317641 0.22986,-0.477663 0.0766,-0.160022 0.15324,-0.320876 0.22986,-0.482377 0.0766,-0.161594 0.15325,-0.323835 0.22987,-0.486815 0.0766,-0.16298 0.15324,-0.3267 0.22986,-0.490975 0.0766,-0.164367 0.15324,-0.329288 0.22987,-0.494857 0.0766,-0.165569 0.15324,-0.331693 0.22986,-0.498463 0.0766,-0.166678 0.15324,-0.333911 0.22986,-0.501699 0.0766,-0.167695 0.15324,-0.335944 0.22987,-0.504564 0.0766,-0.168619 0.15324,-0.337701 0.22986,-0.50706 0.0766,-0.169451 0.15324,-0.33918 0.22986,-0.509279 0.0766,-0.170098 0.15325,-0.340474 0.22987,-0.511128 0.0766,-0.170653 0.15324,-0.341491 0.22986,-0.512607 0.0766,-0.171115 0.15324,-0.342323 0.22987,-0.513716 0.0766,-0.171393 0.15324,-0.342878 0.22986,-0.514363 0.0766,-0.171485 0.15324,-0.343063 0.22986,-0.514641 0.0766,-0.171578 0.15324,-0.343063 0.22987,-0.514456 0.0766,-0.171392 0.15324,-0.342785 0.22986,-0.513901 0.0766,-0.171208 0.15324,-0.342138 0.22986,-0.512976 0.0766,-0.170746 0.15325,-0.341307 0.22987,-0.511498 0.0766,-0.170191 0.15324,-0.340105 0.22986,-0.509649 0.0766,-0.169544 0.15324,-0.338625 0.22986,-0.507337 0.0766,-0.168712 0.15325,-0.336869 0.22987,-0.504564 0.0766,-0.167696 0.15324,-0.334836 0.22986,-0.501329 0.0766,-0.166493 0.15324,-0.332432 0.22987,-0.497631 0.0766,-0.165199 0.15324,-0.329751 0.22986,-0.493471 0.0766,-0.16372 0.15324,-0.3267 0.22986,-0.488848 0.0766,-0.162149 0.15325,-0.323465 0.22987,-0.483764 0.0766,-0.160392 0.15324,-0.319767 0.22986,-0.478218 0.0766,-0.15845 0.15325,-0.315884 0.22987,-0.472209 0.0766,-0.156325 0.15324,-0.31154 0.22986,-0.465645 0.0766,-0.154106 0.15324,-0.30701 0.22986,-0.458712 0.0766,-0.151702 0.15324,-0.30211 0.22987,-0.451223 0.0766,-0.149114 0.15324,-0.296933 0.22987,-0.443366 0.0766,-0.146433 0.15324,-0.291386 0.22986,-0.434953 0.0766,-0.143567 0.15324,-0.285655 0.22986,-0.426171 0.0766,-0.140516 0.15324,-0.279461 0.22986,-0.416834 0.0766,-0.137373 0.15324,-0.273082 0.22987,-0.407127 0.0766,-0.134045 0.15324,-0.266334 0.22986,-0.396959 0.0766,-0.130532 0.15324,-0.2594 0.22986,-0.386327 0.0766,-0.126927 0.15324,-0.252097 0.22986,-0.375326 0.0766,-0.123229 0.15325,-0.244517 0.22988,-0.363863 0.0766,-0.119347 0.15324,-0.236659 0.22986,-0.35203 0.0766,-0.115372 0.15324,-0.228617 0.22986,-0.339828 0.0766,-0.111211 0.15324,-0.220296 0.22986,-0.327162 0.0766,-0.106867 0.15324,-0.211607 0.22987,-0.31422 0.0766,-0.102522 0.15324,-0.202825 0.22986,-0.300816 0.0766,-0.09799 0.15324,-0.193765 0.22986,-0.287134 0.0766,-0.09337 0.15324,-0.184428 0.22986,-0.273082 0.0766,-0.08875 0.15325,-0.174906 0.22987,-0.258753 0.0766,-0.08413 0.15325,-0.165199 0.22987,-0.244055 0.0766,-0.07858 0.15324,-0.155307 0.22986,-0.229171 0.0766,-0.07396 0.15324,-0.145138 0.22986,-0.213917 0.0766,-0.06841 0.15324,-0.134877 0.22986,-0.198479 0.0766,-0.06379 0.15325,-0.124524 0.22987,-0.182764 0.0766,-0.05824 0.15324,-0.113892 0.22986,-0.166863 0.0766,-0.05269 0.15324,-0.103169 0.22986,-0.150778 0.0766,-0.04715 0.15325,-0.09245 0.22987,-0.134414 0.0766,-0.04253 0.15325,-0.08135 0.22987,-0.118053 0.0766,-0.03698 0.15324,-0.07026 0.22986,-0.101412 0.0766,-0.03143 0.15324,-0.05916 0.22986,-0.08505 0.0766,-0.02588 0.15324,-0.04807 0.22986,-0.06748 0.0766,-0.01941 0.15325,-0.03698 0.22987,-0.05084 0.0766,-0.01387 0.15324,-0.02589 0.22986,-0.03421 0.0766,-0.0085 0.15324,-0.01387 0.22986,-0.01664 0.0766,-0.0028 0.15325,-0.0028 0.22987,0 0.0766,0.0028 0.15325,0.0085 0.22987,0.01664 0.0766,0.0085 0.15324,0.01941 0.22986,0.03421 0.0766,0.01387 0.15324,0.03143 0.22986,0.05084 0.0766,0.01941 0.15324,0.04252 0.22986,0.06748 0.0766,0.02589 0.15325,0.05362 0.22987,0.08505 0.0766,0.03143 0.15324,0.06471 0.22986,0.101412 0.0766,0.03698 0.15324,0.07581 0.22986,0.118053 0.0766,0.04252 0.15325,0.0869 0.22987,0.134414 0.0766,0.04715 0.15325,0.09781 0.22987,0.150778 0.0766,0.05269 0.15324,0.108623 0.22986,0.166863 0.0766,0.05824 0.15324,0.119254 0.22986,0.182764 0.0766,0.06379 0.15324,0.1297 0.22986,0.198479 0.0766,0.06841 0.15325,0.140054 0.22987,0.213917 0.0766,0.07396 0.15324,0.150223 0.22986,0.229171 0.0766,0.07858 0.15324,0.1603 0.22986,0.244055 0.0766,0.08412 0.15324,0.170098 0.22987,0.258753 0.0766,0.08875 0.15325,0.179713 0.22987,0.273082 0.0766,0.09337 0.15324,0.189142 0.22986,0.287134 0.0766,0.09799 0.15324,0.198294 0.22986,0.300816 0.0766,0.102521 0.15324,0.207261 0.22986,0.31422 0.0766,0.106958 0.15324,0.215951 0.22987,0.327162 0.0766,0.111211 0.15324,0.224456 0.22986,0.339828 0.0766,0.115371 0.15324,0.232683 0.22986,0.35203 0.0766,0.119346 0.15324,0.240634 0.22987,0.363863 0.0766,0.123229 0.15324,0.248399 0.22987,0.375326 0.0766,0.126927 0.15324,0.255795 0.22986,0.386327 0.0766,0.130532 0.15324,0.262914 0.22986,0.396959 0.0766,0.134045 0.15324,0.269754 0.22986,0.407127 0.0766,0.137373 0.15324,0.276318 0.22987,0.416834 0.0766,0.140516 0.15324,0.282604 0.22986,0.426171 0.0766,0.143567 0.15324,0.28852 0.22986,0.434953 0.0766,0.146433 0.15324,0.294252 0.22986,0.443366 0.0766,0.149113 0.15325,0.299521 0.22988,0.451223 0.0766,0.151702 0.15324,0.304606 0.22986,0.458712 0.0766,0.154105 0.15324,0.30932 0.22986,0.465645 0.0766,0.156325 0.15324,0.313759 0.22986,0.472209 0.0766,0.158451 0.15324,0.317826 0.22987,0.478218 0.0766,0.160391 0.15324,0.321615 0.22986,0.483764 0.0766,0.162148 0.15324,0.325128 0.22986,0.488848 0.0766,0.16372 0.15324,0.328272 0.22986,0.493471 0.0766,0.165199 0.15325,0.331138 0.22987,0.497631 0.0766,0.166493 0.15325,0.333633 0.22987,0.501329 0.0766,0.167695 0.15324,0.335852 0.22986,0.504564 0.0766,0.168619 0.15324,0.337793 0.22986,0.507337 0.0766,0.169544 0.15324,0.339458 0.22986,0.509649 0.0766,0.170191 0.15325,0.340752 0.22987,0.511498 0.0766,0.170745 0.15324,0.341768 0.22986,0.512976 0.0766,0.171208 0.15324,0.342509 0.22986,0.513901 0.0766,0.171393 0.15325,0.342971 0.22987,0.514456 0.0766,0.171578 0.15325,0.343156 0.22987,0.514641 0.0766,0.171485 0.15324,0.34297 0.22986,0.514363 0.0766,0.171393 0.15324,0.342601 0.22986,0.513716 0.0766,0.171023 0.15324,0.341954 0.22986,0.512607 0.0766,0.170654 0.15325,0.34103 0.22987,0.511128 0.0766,0.170099 0.15324,0.33992 0.22986,0.509279 0.0766,0.169452 0.15324,0.338441 0.22986,0.50706 0.0766,0.16862 0.15325,0.336869 0.22987,0.504564 0.0766,0.167695 0.15325,0.334928 0.22987,0.501699 0.0766,0.166678 0.15324,0.332894 0.22986,0.498463 0.0766,0.165569 0.15324,0.33049 0.22986,0.494857 0.0766,0.164367 0.15324,0.327995 0.22986,0.490975 0.0766,0.16298 0.15325,0.325314 0.22987,0.486815 0.0766,0.161593 0.15324,0.322355 0.22986,0.482377 0.0766,0.160022 0.15324,0.319305 0.22986,0.477663 0.0766,0.15845 0.15324,0.315977 0.22987,0.472763 0.0766,0.156694 0.15325,0.312556 0.22987,0.467494 0.0766,0.154938 0.15324,0.308951 0.22986,0.462039 0.0766,0.153089 0.15324,0.305254 0.22986,0.456401 0.0766,0.151147 0.15324,0.301278 0.22986,0.450484 0.0766,0.149207 0.15325,0.297302 0.22987,0.444381 0.0766,0.147082 0.15324,0.293143 0.22986,0.438097 0.0766,0.144955 0.15324,0.288891 0.22986,0.431718 0.0766,0.142828 0.15324,0.284546 0.22987,0.425061 0.0766,0.14061 0.15325,0.280017 0.22987,0.418314 0.0766,0.138298 0.15324,0.275485 0.22986,0.411472 0.0766,0.135986 0.15324,0.270865 0.22986,0.404448 0.0766,0.133673 0.15324,0.266147 0.22986,0.397327 0.0766,0.131271 0.15324,0.261342 0.22987,0.390118 0.0766,0.128868 0.15324,0.256442 0.22986,0.382905 0.0766,0.126373 0.15324,0.251545 0.22986,0.375512 0.0766,0.123968 0.15324,0.246642 0.22986,0.368023 0.0766,0.121472 0.15325,0.241651 0.22988,0.360534 0.0766,0.118978 0.15324,0.236659 0.22986,0.353047 0.0766,0.11639 0.15324,0.231576 0.22986,0.345469 0.0766,0.11389 0.15324,0.226489 0.22986,0.337886 0.0766,0.111395 0.15324,0.221496 0.22987,0.330306 0.0766,0.108807 0.15324,0.216413 0.22986,0.322723 0.0766,0.106312 0.15324,0.21133 0.22986,0.315145 0.0766,0.103817 0.15324,0.206245 0.22986,0.307565 0.0766,0.101227 0.15325,0.201253 0.22988,0.299982 0.0766,0.09873 0.15324,0.196262 0.22986,0.292497 0.0766,0.09623 0.15324,0.191267 0.22986,0.285006 0.0766,0.09374 0.15324,0.186277 0.22986,0.277522 0.0766,0.09152 0.15324,0.181377 0.22986,0.270216 0.0766,0.08875 0.15325,0.176477 0.22987,0.262821 0.0766,0.08597 0.15324,0.171577 0.22986,0.255609 0.0766,0.08413 0.15324,0.166772 0.22986,0.248401 0.0766,0.08135 0.15325,0.162055 0.22987,0.241279 0.0766,0.0795 0.15325,0.157343 0.22987,0.23435 0.0766,0.07673 0.15324,0.152717 0.22986,0.227322 0.0766,0.07488 0.15324,0.148187 0.22986,0.220572 0.0766,0.07211 0.15324,0.143658 0.22986,0.213826 0.0766,0.07026 0.15325,0.139221 0.22987,0.207169 0.0766,0.06841 0.15324,0.134784 0.22986,0.200604 0.0766,0.06564 0.15324,0.130532 0.22986,0.194228 0.0766,0.06379 0.15325,0.12628 0.22987,0.187939 0.0766,0.06194 0.15325,0.122213 0.22987,0.181747 0.0766,0.05917 0.15324,0.118052 0.22986,0.175647 0.0766,0.05732 0.15324,0.114075 0.22986,0.169727 0.0766,0.05547 0.15324,0.110194 0.22986,0.163904 0.0766,0.05362 0.15325,0.106405 0.22987,0.158174 0.0766,0.05177 0.15324,0.102613 0.22986,0.152627 0.0766,0.04992 0.15324,0.09901 0.22986,0.147079 0.0766,0.04807 0.15325,0.0954 0.22987,0.141812 0.0766,0.04622 0.15325,0.09152 0.22987,0.136633 0.0766,0.04437 0.15324,0.08875 0.22986,0.131548 0.0766,0.04345 0.15324,0.08505 0.22986,0.126558 0.0766,0.0416 0.15324,0.08228 0.22986,0.121751 0.0766,0.03975 0.15325,0.07858 0.22987,0.117033 0.0766,0.0379 0.15324,0.07581 0.22986,0.112506 0.0766,0.03698 0.15324,0.07303 0.22986,0.108069 0.0766,0.03513 0.15324,0.07026 0.22987,0.103722 0.0766,0.0342 0.15325,0.06748 0.22987,0.09956 0.0766,0.03236 0.15324,0.06471 0.22986,0.09549 0.0766,0.03143 0.15324,0.06194 0.22986,0.09152 0.0766,0.02958 0.15324,0.05917 0.22986,0.08782 0.0766,0.02866 0.15325,0.05639 0.22987,0.08413 0.0766,0.02773 0.15324,0.05454 0.22986,0.08043 0.0766,0.0259 0.15324,0.05177 0.22986,0.07673 0.0766,0.02495 0.15324,0.04992 0.22987,0.07396 0.0766,0.02402 0.15324,0.04715 0.22987,0.07026 0.0766,0.0231 0.15324,0.0453 0.22986,0.06748 0.0766,0.0222 0.15324,0.04345 0.22986,0.06471 0.0766,0.02127 0.15324,0.0416 0.22986,0.06101 0.0766,0.02035 0.15324,0.03975 0.22987,0.05824 0.0766,0.01942 0.15324,0.0379 0.22986,0.05547 0.0766,0.01849 0.15324,0.03605 0.22986,0.05362 0.0766,0.01757 0.15324,0.0342 0.22986,0.05084 0.0766,0.01664 0.15325,0.03236 0.22988,0.04807 0.0766,0.01572 0.15324,0.03143 0.22986,0.04622 0.0766,0.01479 0.15324,0.02958 0.22986,0.04345 0.0766,0.01386 0.15324,0.02773 0.22986,0.0416 0.0766,0.01386 0.15324,0.02681 0.22987,0.03975 0.0766,0.01294 0.15324,0.02588 0.22986,0.0379 0.0766,0.01201 0.15324,0.02405 0.22986,0.03605 0.0766,0.01201 0.15324,0.02313 0.22986,0.0342 0.0766,0.01109 0.15325,0.0222 0.22988,0.03236 0.0766,0.01016 0.15324,0.02035 0.22986,0.03051 0.0766,0.01016 0.15324,0.01942 0.22986,0.02866"
       style="opacity:1;fill:#000000;fill-opacity:0.39215686;stroke:#000000;stroke-width:0.81447744;stroke-miterlimit:4;stroke-dasharray:none;stroke-dashoffset:0;stroke-opacity:1"
       inkscape:connector-curvature="0" />
    <path
       inkscape:connector-curvature="0"
       id="path4506-6"
       d="m 88.899943,33.739575 c 0,43.65625 0,43.65625 0,43.65625"
       style="fill:none;stroke:#000000;stroke-width:0.93444896;stroke-linecap:butt;stroke-linejoin:miter;stroke-miterlimit:4;stroke-dasharray:1.86889786, 1.86889786;stroke-dashoffset:0;stroke-opacity:1" />
    <path
       inkscape:connector-curvature="0"
       id="path4506-6-4"
       d="m 125.94154,33.739575 c 0,43.65625 0,43.65625 0,43.65625"
       style="fill:none;stroke:#000000;stroke-width:0.93444902;stroke-linecap:butt;stroke-linejoin:miter;stroke-miterlimit:4;stroke-dasharray:1.86889788, 1.86889788;stroke-dashoffset:0;stroke-opacity:1" />
    <text
       xml:space="preserve"
       style="font-style:normal;font-variant:normal;font-weight:normal;font-stretch:normal;font-size:3.52777767px;line-height:1.25;font-family:sans-serif;-inkscape-font-specification:'sans-serif, Normal';font-variant-ligatures:normal;font-variant-caps:normal;font-variant-numeric:normal;font-feature-settings:normal;text-align:start;letter-spacing:0px;word-spacing:0px;writing-mode:lr-tb;text-anchor:start;fill:#000000;fill-opacity:1;stroke:none;stroke-width:0.26458332"
       x="87.312477"
       y="82.158325"
       id="text5170"><tspan
         sodipodi:role="line"
         id="tspan9473">\Large  0</tspan></text>
    <text
       id="text5174"
       y="82.158325"
       x="124.35413"
       style="font-style:normal;font-variant:normal;font-weight:normal;font-stretch:normal;font-size:3.52777767px;line-height:1.25;font-family:sans-serif;-inkscape-font-specification:'sans-serif, Normal';font-variant-ligatures:normal;font-variant-caps:normal;font-variant-numeric:normal;font-feature-settings:normal;text-align:start;letter-spacing:0px;word-spacing:0px;writing-mode:lr-tb;text-anchor:start;fill:#000000;fill-opacity:1;stroke:none;stroke-width:0.26458332"
       xml:space="preserve"><tspan
         sodipodi:role="line"
         id="tspan9471"
         x="124.35413"
         y="82.158325">\Large  1</tspan></text>
    <text
       xml:space="preserve"
       style="font-style:normal;font-variant:normal;font-weight:normal;font-stretch:normal;font-size:3.52777767px;line-height:1.25;font-family:sans-serif;-inkscape-font-specification:'sans-serif, Normal';font-variant-ligatures:normal;font-variant-caps:normal;font-variant-numeric:normal;font-feature-settings:normal;text-align:start;letter-spacing:0px;word-spacing:0px;writing-mode:lr-tb;text-anchor:start;fill:#000000;fill-opacity:1;stroke:none;stroke-width:0.26458332"
       x="121.7083"
       y="30.829109"
       id="text5190"><tspan
         sodipodi:role="line"
         id="tspan5196"
         x="121.7083"
         y="30.829109">\textit{news}</tspan></text>
    <text
       id="text5194"
       y="30.829109"
       x="80.433281"
       style="font-style:normal;font-variant:normal;font-weight:normal;font-stretch:normal;font-size:3.52777767px;line-height:1.25;font-family:sans-serif;-inkscape-font-specification:'sans-serif, Normal';font-variant-ligatures:normal;font-variant-caps:normal;font-variant-numeric:normal;font-feature-settings:normal;text-align:start;letter-spacing:0px;word-spacing:0px;writing-mode:lr-tb;text-anchor:start;fill:#000000;fill-opacity:1;stroke:none;stroke-width:0.26458332"
       xml:space="preserve"><tspan
         sodipodi:role="line"
         id="tspan6582"
         x="80.433281"
         y="30.829109">\textit{not-news}</tspan></text>
    <path
       inkscape:connector-curvature="0"
       id="path4506-2"
       d="m 46.566654,74.749993 c 0,-44.979168 0,-44.979168 0,-44.979168"
       style="fill:none;stroke:#000000;stroke-width:0.77999997;stroke-linecap:butt;stroke-linejoin:miter;stroke-miterlimit:4;stroke-dasharray:none;stroke-opacity:1;marker-end:url(#marker6381)" />
    <text
       id="text6423"
       y="81.629158"
       x="173.03683"
       style="font-style:normal;font-variant:normal;font-weight:normal;font-stretch:normal;font-size:3.52777767px;line-height:1.25;font-family:sans-serif;-inkscape-font-specification:'sans-serif, Normal';font-variant-ligatures:normal;font-variant-caps:normal;font-variant-numeric:normal;font-feature-settings:normal;text-align:start;letter-spacing:0px;word-spacing:0px;writing-mode:lr-tb;text-anchor:start;fill:#000000;fill-opacity:1;stroke:none;stroke-width:0.26458332"
       xml:space="preserve"
       inkscape:label="text6423"><tspan
         sodipodi:role="line"
         id="tspan9469"
         x="173.03683"
         y="81.629158">\text{\Large $ \hat{y}$}</tspan></text>
    <text
       id="text6423-6"
       y="43.699165"
       x="-60.238506"
       style="font-style:normal;font-variant:normal;font-weight:normal;font-stretch:normal;font-size:3.52777767px;line-height:1.25;font-family:sans-serif;-inkscape-font-specification:'sans-serif, Normal';font-variant-ligatures:normal;font-variant-caps:normal;font-variant-numeric:normal;font-feature-settings:normal;text-align:start;letter-spacing:0px;word-spacing:0px;writing-mode:lr-tb;text-anchor:start;fill:#000000;fill-opacity:1;stroke:none;stroke-width:0.26458332"
       xml:space="preserve"
       transform="rotate(-90)"
       inkscape:label="text6423-6"><tspan
         sodipodi:role="line"
         id="tspan6464"
         x="-60.238506"
         y="43.699165">Frequency</tspan></text>
    <path
       style="opacity:0.01000001;fill:#000000;fill-opacity:0.00392157;stroke:#000000;stroke-width:0.77999997;stroke-miterlimit:4;stroke-dasharray:none;stroke-dashoffset:0;stroke-opacity:1"
       d="M 37.041669,17.070834 V 83.216669 H 193.14583 V 17.070834 Z"
       id="rect6584"
       inkscape:connector-curvature="0" />
  </g>
  <g
     inkscape:groupmode="layer"
     id="layer2"
     inkscape:label="Layer 2" />
</svg>
